%TF.GenerationSoftware,KiCad,Pcbnew,9.0.6+1*%
%TF.CreationDate,Date%
%TF.ProjectId,REALTRA_TRIAL,5245414c-5452-4415-9f54-5249414c2e6b,+ (Unreleased)*%
%TF.SameCoordinates,Original*%
%TF.FileFunction,Soldermask,Top*%
%TF.FilePolarity,Negative*%
%FSLAX46Y46*%
G04 Gerber Fmt 4.6, Leading zero omitted, Abs format (unit mm)*
G04 Created by KiCad*
%MOMM*%
%LPD*%
G01*
G04 APERTURE LIST*
G04 Aperture macros list*
%AMRoundRect*
0 Rectangle with rounded corners*
0 $1 Rounding radius*
0 $2 $3 $4 $5 $6 $7 $8 $9 X,Y pos of 4 corners*
0 Add a 4 corners polygon primitive as box body*
4,1,4,$2,$3,$4,$5,$6,$7,$8,$9,$2,$3,0*
0 Add four circle primitives for the rounded corners*
1,1,$1+$1,$2,$3*
1,1,$1+$1,$4,$5*
1,1,$1+$1,$6,$7*
1,1,$1+$1,$8,$9*
0 Add four rect primitives between the rounded corners*
20,1,$1+$1,$2,$3,$4,$5,0*
20,1,$1+$1,$4,$5,$6,$7,0*
20,1,$1+$1,$6,$7,$8,$9,0*
20,1,$1+$1,$8,$9,$2,$3,0*%
G04 Aperture macros list end*
%ADD10RoundRect,0.175000X0.175000X-0.612500X0.175000X0.612500X-0.175000X0.612500X-0.175000X-0.612500X0*%
%ADD11RoundRect,0.050000X1.200000X1.200000X-1.200000X1.200000X-1.200000X-1.200000X1.200000X-1.200000X0*%
%ADD12C,2.500000*%
%ADD13RoundRect,0.050000X-0.300000X-0.300000X0.300000X-0.300000X0.300000X0.300000X-0.300000X0.300000X0*%
%ADD14RoundRect,0.274390X0.475610X-0.288110X0.475610X0.288110X-0.475610X0.288110X-0.475610X-0.288110X0*%
%ADD15RoundRect,0.274390X-0.475610X0.288110X-0.475610X-0.288110X0.475610X-0.288110X0.475610X0.288110X0*%
%ADD16RoundRect,0.050000X0.500000X-0.500000X0.500000X0.500000X-0.500000X0.500000X-0.500000X-0.500000X0*%
%ADD17RoundRect,0.050000X-0.850000X0.850000X-0.850000X-0.850000X0.850000X-0.850000X0.850000X0.850000X0*%
%ADD18C,1.800000*%
%ADD19RoundRect,0.050000X0.850000X-0.850000X0.850000X0.850000X-0.850000X0.850000X-0.850000X-0.850000X0*%
%ADD20RoundRect,0.274390X-0.288110X-0.475610X0.288110X-0.475610X0.288110X0.475610X-0.288110X0.475610X0*%
%ADD21C,2.050000*%
%ADD22RoundRect,0.050000X1.650000X-1.650000X1.650000X1.650000X-1.650000X1.650000X-1.650000X-1.650000X0*%
%ADD23C,1.900000*%
%ADD24RoundRect,0.274390X0.288110X0.475610X-0.288110X0.475610X-0.288110X-0.475610X0.288110X-0.475610X0*%
%ADD25C,3.600000*%
%ADD26RoundRect,0.050000X1.000000X-0.952500X1.000000X0.952500X-1.000000X0.952500X-1.000000X-0.952500X0*%
%ADD27O,2.100000X2.005000*%
%ADD28RoundRect,0.050000X-0.750000X-0.750000X0.750000X-0.750000X0.750000X0.750000X-0.750000X0.750000X0*%
%ADD29C,1.600000*%
%ADD30C,4.675000*%
%ADD31RoundRect,0.050000X-0.825000X-0.825000X0.825000X-0.825000X0.825000X0.825000X-0.825000X0.825000X0*%
%ADD32C,1.750000*%
%ADD33C,4.900000*%
%ADD34RoundRect,0.050000X-0.450000X-0.575000X0.450000X-0.575000X0.450000X0.575000X-0.450000X0.575000X0*%
%ADD35C,4.100000*%
%ADD36RoundRect,0.050000X0.800000X-0.800000X0.800000X0.800000X-0.800000X0.800000X-0.800000X-0.800000X0*%
%ADD37C,1.700000*%
%ADD38C,5.560000*%
%ADD39C,4.843000*%
%ADD40RoundRect,0.050000X-0.500000X-0.500000X0.500000X-0.500000X0.500000X0.500000X-0.500000X0.500000X0*%
%ADD41C,5.700000*%
%ADD42RoundRect,0.175000X-0.612500X-0.175000X0.612500X-0.175000X0.612500X0.175000X-0.612500X0.175000X0*%
%ADD43RoundRect,0.050000X0.850000X0.850000X-0.850000X0.850000X-0.850000X-0.850000X0.850000X-0.850000X0*%
%ADD44RoundRect,0.050000X-0.800000X-0.800000X0.800000X-0.800000X0.800000X0.800000X-0.800000X0.800000X0*%
%ADD45RoundRect,0.265625X-0.584375X0.584375X-0.584375X-0.584375X0.584375X-0.584375X0.584375X0.584375X0*%
%ADD46C,3.300000*%
G04 APERTURE END LIST*
D10*
%TO.C,Q16*%
X176000000Y-79700000D03*
X177900000Y-79700000D03*
X176950000Y-77825000D03*
%TD*%
D11*
%TO.C,J16*%
X271000000Y-55000000D03*
D12*
X265920000Y-55000000D03*
%TD*%
D13*
%TO.C,T7*%
X134000000Y-181250000D03*
%TD*%
D14*
%TO.C,R76*%
X233250000Y-143912500D03*
X233250000Y-142087500D03*
%TD*%
D15*
%TO.C,R29*%
X308500000Y-173087500D03*
X308500000Y-174912500D03*
%TD*%
D16*
%TO.C,TTL4*%
X118000000Y-170750000D03*
%TD*%
D15*
%TO.C,R44*%
X171155000Y-181087500D03*
X171155000Y-182912500D03*
%TD*%
D17*
%TO.C,J7*%
X305905000Y-113675000D03*
D18*
X303365000Y-113675000D03*
X300825000Y-113675000D03*
X298285000Y-113675000D03*
X295745000Y-113675000D03*
X293205000Y-113675000D03*
X290665000Y-113675000D03*
X288125000Y-113675000D03*
%TD*%
D15*
%TO.C,R21*%
X291500000Y-173087500D03*
X291500000Y-174912500D03*
%TD*%
D19*
%TO.C,JP2*%
X343000000Y-179250000D03*
D18*
X345540000Y-179250000D03*
X348080000Y-179250000D03*
%TD*%
D20*
%TO.C,R75*%
X301287500Y-82012500D03*
X303112500Y-82012500D03*
%TD*%
D15*
%TO.C,R14*%
X274500000Y-173087500D03*
X274500000Y-174912500D03*
%TD*%
D10*
%TO.C,Q12*%
X76050000Y-79637500D03*
X77950000Y-79637500D03*
X77000000Y-77762500D03*
%TD*%
D17*
%TO.C,J8*%
X283045000Y-113675000D03*
D18*
X280505000Y-113675000D03*
X277965000Y-113675000D03*
X275425000Y-113675000D03*
X272885000Y-113675000D03*
X270345000Y-113675000D03*
X267805000Y-113675000D03*
X265265000Y-113675000D03*
%TD*%
D21*
%TO.C,K5*%
X165000000Y-82700000D03*
X172600000Y-82700000D03*
X172600000Y-70000000D03*
X165000000Y-67460000D03*
%TD*%
D13*
%TO.C,VC6*%
X254750000Y-177000000D03*
%TD*%
D14*
%TO.C,R80*%
X207250000Y-143912500D03*
X207250000Y-142087500D03*
%TD*%
D16*
%TO.C,TTL3*%
X127000000Y-170750000D03*
%TD*%
D22*
%TO.C,J14*%
X74370000Y-186510000D03*
D23*
X69290000Y-192870000D03*
X79450000Y-192870000D03*
X79450000Y-182710000D03*
X69290000Y-182710000D03*
%TD*%
D10*
%TO.C,Q11*%
X101212500Y-79637500D03*
X103112500Y-79637500D03*
X102162500Y-77762500D03*
%TD*%
D24*
%TO.C,R9*%
X202912500Y-84200000D03*
X201087500Y-84200000D03*
%TD*%
D17*
%TO.C,J2*%
X300825000Y-161935000D03*
D18*
X298285000Y-161935000D03*
X295745000Y-161935000D03*
X293205000Y-161935000D03*
X290665000Y-161935000D03*
X288125000Y-161935000D03*
X285585000Y-161935000D03*
X283045000Y-161935000D03*
%TD*%
D24*
%TO.C,R5*%
X303112500Y-84262500D03*
X301287500Y-84262500D03*
%TD*%
D20*
%TO.C,R72*%
X226037500Y-82012500D03*
X227862500Y-82012500D03*
%TD*%
D15*
%TO.C,R25*%
X300000000Y-173087500D03*
X300000000Y-174912500D03*
%TD*%
D25*
%TO.C,Q3*%
X57750000Y-171250000D03*
D26*
X74410000Y-173790000D03*
D27*
X74410000Y-171250000D03*
X74410000Y-168710000D03*
%TD*%
D14*
%TO.C,R79*%
X213750000Y-143912500D03*
X213750000Y-142087500D03*
%TD*%
D20*
%TO.C,R66*%
X76087500Y-81950000D03*
X77912500Y-81950000D03*
%TD*%
%TO.C,R73*%
X250675000Y-81950000D03*
X252500000Y-81950000D03*
%TD*%
D14*
%TO.C,R85*%
X181250000Y-143912500D03*
X181250000Y-142087500D03*
%TD*%
D15*
%TO.C,R17*%
X283000000Y-173087500D03*
X283000000Y-174912500D03*
%TD*%
D24*
%TO.C,R4*%
X77912500Y-84200000D03*
X76087500Y-84200000D03*
%TD*%
D28*
%TO.C,J15*%
X185945000Y-188510000D03*
D29*
X183175000Y-188510000D03*
X180405000Y-188510000D03*
X177635000Y-188510000D03*
X174865000Y-188510000D03*
X184560000Y-191350000D03*
X181790000Y-191350000D03*
X179020000Y-191350000D03*
X176250000Y-191350000D03*
D30*
X192900000Y-189930000D03*
X167910000Y-189930000D03*
%TD*%
D31*
%TO.C,J11*%
X134007500Y-186000000D03*
D32*
X131717500Y-186000000D03*
X129427500Y-186000000D03*
X127137500Y-186000000D03*
X124847500Y-186000000D03*
X135152500Y-188540000D03*
X132862500Y-188540000D03*
X130572500Y-188540000D03*
X128282500Y-188540000D03*
X125992500Y-188540000D03*
X134007500Y-191080000D03*
X131717500Y-191080000D03*
X129427500Y-191080000D03*
X127137500Y-191080000D03*
X124847500Y-191080000D03*
D33*
X142494500Y-188540000D03*
X117505500Y-188540000D03*
%TD*%
D15*
%TO.C,R18*%
X281000000Y-173087500D03*
X281000000Y-174912500D03*
%TD*%
D11*
%TO.C,J5*%
X296000000Y-55000000D03*
D12*
X290920000Y-55000000D03*
%TD*%
D21*
%TO.C,K1*%
X65000000Y-82700000D03*
X72600000Y-82700000D03*
X72600000Y-70000000D03*
X65000000Y-67460000D03*
%TD*%
D11*
%TO.C,J21*%
X146000000Y-55000000D03*
D12*
X140920000Y-55000000D03*
%TD*%
D34*
%TO.C,K20*%
X181270000Y-146875000D03*
X178730000Y-146875000D03*
X178730000Y-153125000D03*
X181270000Y-153125000D03*
%TD*%
D20*
%TO.C,R69*%
X151087500Y-81887500D03*
X152912500Y-81887500D03*
%TD*%
D10*
%TO.C,Q15*%
X250637500Y-79637500D03*
X252537500Y-79637500D03*
X251587500Y-77762500D03*
%TD*%
D24*
%TO.C,R10*%
X177862500Y-84262500D03*
X176037500Y-84262500D03*
%TD*%
D15*
%TO.C,R34*%
X121000000Y-174087500D03*
X121000000Y-175912500D03*
%TD*%
%TO.C,R11*%
X268250000Y-173087500D03*
X268250000Y-174912500D03*
%TD*%
D14*
%TO.C,R40*%
X139500000Y-175912500D03*
X139500000Y-174087500D03*
%TD*%
D11*
%TO.C,J17*%
X246000000Y-55000000D03*
D12*
X240920000Y-55000000D03*
%TD*%
D21*
%TO.C,K4*%
X140000000Y-82700000D03*
X147600000Y-82700000D03*
X147600000Y-70000000D03*
X140000000Y-67460000D03*
%TD*%
D15*
%TO.C,R43*%
X184905000Y-181087500D03*
X184905000Y-182912500D03*
%TD*%
D35*
%TO.C,J12*%
X362890000Y-100345000D03*
X362890000Y-75345000D03*
D36*
X361000000Y-92160000D03*
D37*
X361000000Y-89870000D03*
X361000000Y-87580000D03*
X361000000Y-85290000D03*
X361000000Y-83000000D03*
X362900000Y-93305000D03*
X362900000Y-91015000D03*
X362900000Y-88725000D03*
X362900000Y-86435000D03*
X362900000Y-84145000D03*
X364800000Y-92160000D03*
X364800000Y-89870000D03*
X364800000Y-87580000D03*
X364800000Y-85290000D03*
X364800000Y-83000000D03*
%TD*%
D38*
%TO.C,J25*%
X349000000Y-65000000D03*
D39*
X349000000Y-59000000D03*
X344300000Y-62000000D03*
%TD*%
D20*
%TO.C,R71*%
X201087500Y-81950000D03*
X202912500Y-81950000D03*
%TD*%
D15*
%TO.C,R36*%
X127000000Y-174087500D03*
X127000000Y-175912500D03*
%TD*%
D40*
%TO.C,VTX1*%
X257500000Y-185750000D03*
%TD*%
D11*
%TO.C,J22*%
X121000000Y-55000000D03*
D12*
X115920000Y-55000000D03*
%TD*%
D21*
%TO.C,K2*%
X90000000Y-82700000D03*
X97600000Y-82700000D03*
X97600000Y-70000000D03*
X90000000Y-67460000D03*
%TD*%
D34*
%TO.C,K14*%
X213770000Y-146875000D03*
X211230000Y-146875000D03*
X211230000Y-153125000D03*
X213770000Y-153125000D03*
%TD*%
D14*
%TO.C,R84*%
X174750000Y-143912500D03*
X174750000Y-142087500D03*
%TD*%
D13*
%TO.C,VC2*%
X254750000Y-181750000D03*
%TD*%
D41*
%TO.C,H4*%
X366000000Y-54000000D03*
%TD*%
D15*
%TO.C,R30*%
X306500000Y-173087500D03*
X306500000Y-174912500D03*
%TD*%
D22*
%TO.C,J13*%
X94370000Y-186510000D03*
D23*
X99450000Y-192870000D03*
X99450000Y-182710000D03*
X89290000Y-182710000D03*
X89290000Y-192870000D03*
%TD*%
D17*
%TO.C,J6*%
X332829000Y-113675000D03*
D18*
X330289000Y-113675000D03*
X327749000Y-113675000D03*
X325209000Y-113675000D03*
X322669000Y-113675000D03*
X320129000Y-113675000D03*
X317589000Y-113675000D03*
X315049000Y-113675000D03*
X312509000Y-113675000D03*
X309969000Y-113675000D03*
%TD*%
D15*
%TO.C,R19*%
X285250000Y-173087500D03*
X285250000Y-174912500D03*
%TD*%
D24*
%TO.C,R6*%
X278162500Y-84137500D03*
X276337500Y-84137500D03*
%TD*%
D17*
%TO.C,J3*%
X277965000Y-161935000D03*
D18*
X275425000Y-161935000D03*
X272885000Y-161935000D03*
X270345000Y-161935000D03*
X267805000Y-161935000D03*
X265265000Y-161935000D03*
X262725000Y-161935000D03*
X260185000Y-161935000D03*
%TD*%
D21*
%TO.C,K9*%
X215000000Y-82700000D03*
X222600000Y-82700000D03*
X222600000Y-70000000D03*
X215000000Y-67460000D03*
%TD*%
D14*
%TO.C,R82*%
X194250000Y-143912500D03*
X194250000Y-142087500D03*
%TD*%
D11*
%TO.C,J20*%
X171000000Y-55000000D03*
D12*
X165920000Y-55000000D03*
%TD*%
D17*
%TO.C,J9*%
X278150000Y-105200000D03*
D18*
X275610000Y-105200000D03*
X273070000Y-105200000D03*
X270530000Y-105200000D03*
X267990000Y-105200000D03*
X265450000Y-105200000D03*
%TD*%
D11*
%TO.C,J24*%
X71000000Y-55000000D03*
D12*
X65920000Y-55000000D03*
%TD*%
D15*
%TO.C,R15*%
X276750000Y-173087500D03*
X276750000Y-174912500D03*
%TD*%
%TO.C,R42*%
X178055000Y-181087500D03*
X178055000Y-182912500D03*
%TD*%
D24*
%TO.C,R7*%
X252500000Y-84200000D03*
X250675000Y-84200000D03*
%TD*%
D10*
%TO.C,Q10*%
X151050000Y-79575000D03*
X152950000Y-79575000D03*
X152000000Y-77700000D03*
%TD*%
D11*
%TO.C,J19*%
X196000000Y-55000000D03*
D12*
X190920000Y-55000000D03*
%TD*%
D24*
%TO.C,R3*%
X103075000Y-84200000D03*
X101250000Y-84200000D03*
%TD*%
%TO.C,R2*%
X128000000Y-84200000D03*
X126175000Y-84200000D03*
%TD*%
D14*
%TO.C,R77*%
X226750000Y-143912500D03*
X226750000Y-142087500D03*
%TD*%
D34*
%TO.C,K15*%
X207270000Y-146875000D03*
X204730000Y-146875000D03*
X204730000Y-153125000D03*
X207270000Y-153125000D03*
%TD*%
D11*
%TO.C,J23*%
X96000000Y-55000000D03*
D12*
X90920000Y-55000000D03*
%TD*%
D42*
%TO.C,Q13*%
X180117500Y-181050000D03*
X180117500Y-182950000D03*
X181992500Y-182000000D03*
%TD*%
D15*
%TO.C,R22*%
X289500000Y-173087500D03*
X289500000Y-174912500D03*
%TD*%
D16*
%TO.C,TTL2*%
X121000000Y-170750000D03*
%TD*%
D17*
%TO.C,J1*%
X323685000Y-161935000D03*
D18*
X321145000Y-161935000D03*
X318605000Y-161935000D03*
X316065000Y-161935000D03*
X313525000Y-161935000D03*
X310985000Y-161935000D03*
X308445000Y-161935000D03*
X305905000Y-161935000D03*
%TD*%
D21*
%TO.C,K10*%
X239600000Y-82700000D03*
X247200000Y-82700000D03*
X247200000Y-70000000D03*
X239600000Y-67460000D03*
%TD*%
D34*
%TO.C,K16*%
X200770000Y-146875000D03*
X198230000Y-146875000D03*
X198230000Y-153125000D03*
X200770000Y-153125000D03*
%TD*%
D14*
%TO.C,R57*%
X179155000Y-178262500D03*
X179155000Y-176437500D03*
%TD*%
D10*
%TO.C,Q9*%
X126137500Y-79637500D03*
X128037500Y-79637500D03*
X127087500Y-77762500D03*
%TD*%
D34*
%TO.C,K18*%
X187770000Y-146875000D03*
X185230000Y-146875000D03*
X185230000Y-153125000D03*
X187770000Y-153125000D03*
%TD*%
D11*
%TO.C,J18*%
X221000000Y-55000000D03*
D12*
X215920000Y-55000000D03*
%TD*%
D20*
%TO.C,R68*%
X126175000Y-81950000D03*
X128000000Y-81950000D03*
%TD*%
D41*
%TO.C,H3*%
X54000000Y-54000000D03*
%TD*%
D24*
%TO.C,R8*%
X227862500Y-84262500D03*
X226037500Y-84262500D03*
%TD*%
D16*
%TO.C,TTL1*%
X124000000Y-170750000D03*
%TD*%
D42*
%TO.C,Q4*%
X186967500Y-181050000D03*
X186967500Y-182950000D03*
X188842500Y-182000000D03*
%TD*%
D15*
%TO.C,R26*%
X298000000Y-173087500D03*
X298000000Y-174912500D03*
%TD*%
D13*
%TO.C,VC1*%
X257500000Y-183000000D03*
%TD*%
D16*
%TO.C,DL1*%
X185905000Y-172963800D03*
%TD*%
D14*
%TO.C,R56*%
X185905000Y-178262500D03*
X185905000Y-176437500D03*
%TD*%
D10*
%TO.C,Q14*%
X226000000Y-79700000D03*
X227900000Y-79700000D03*
X226950000Y-77825000D03*
%TD*%
D40*
%TO.C,VTX2*%
X254750000Y-184250000D03*
%TD*%
D15*
%TO.C,R62*%
X172155000Y-176437500D03*
X172155000Y-178262500D03*
%TD*%
D14*
%TO.C,R81*%
X200750000Y-143912500D03*
X200750000Y-142087500D03*
%TD*%
D10*
%TO.C,Q24*%
X276300000Y-79575000D03*
X278200000Y-79575000D03*
X277250000Y-77700000D03*
%TD*%
D13*
%TO.C,T8*%
X257500000Y-175000000D03*
%TD*%
D14*
%TO.C,R65*%
X77180000Y-170250000D03*
X77180000Y-168425000D03*
%TD*%
D15*
%TO.C,R16*%
X278750000Y-173087500D03*
X278750000Y-174912500D03*
%TD*%
D21*
%TO.C,K6*%
X265037500Y-82700000D03*
X272637500Y-82700000D03*
X272637500Y-70000000D03*
X265037500Y-67460000D03*
%TD*%
D15*
%TO.C,R27*%
X302250000Y-173087500D03*
X302250000Y-174912500D03*
%TD*%
D43*
%TO.C,J4*%
X257645000Y-156855000D03*
D18*
X255105000Y-156855000D03*
X257645000Y-154315000D03*
X255105000Y-154315000D03*
X257645000Y-151775000D03*
X255105000Y-151775000D03*
X257645000Y-149235000D03*
X255105000Y-149235000D03*
X257645000Y-146695000D03*
X255105000Y-146695000D03*
X257645000Y-144155000D03*
X255105000Y-144155000D03*
X257645000Y-141615000D03*
X255105000Y-141615000D03*
X257645000Y-139075000D03*
X255105000Y-139075000D03*
X257645000Y-136535000D03*
X255105000Y-136535000D03*
X257645000Y-133995000D03*
X255105000Y-133995000D03*
X257645000Y-131455000D03*
X255105000Y-131455000D03*
X257645000Y-128915000D03*
X255105000Y-128915000D03*
X257645000Y-126375000D03*
X255105000Y-126375000D03*
X257645000Y-123835000D03*
X255105000Y-123835000D03*
X257645000Y-121295000D03*
X255105000Y-121295000D03*
X257645000Y-118755000D03*
X255105000Y-118755000D03*
X257645000Y-116215000D03*
X255105000Y-116215000D03*
X257645000Y-113675000D03*
X255105000Y-113675000D03*
%TD*%
D15*
%TO.C,R35*%
X129400000Y-174087500D03*
X129400000Y-175912500D03*
%TD*%
D13*
%TO.C,VC5*%
X257500000Y-178000000D03*
%TD*%
D15*
%TO.C,R33*%
X124000000Y-174087500D03*
X124000000Y-175912500D03*
%TD*%
D14*
%TO.C,R38*%
X118000000Y-175825000D03*
X118000000Y-174000000D03*
%TD*%
D15*
%TO.C,R28*%
X304250000Y-173087500D03*
X304250000Y-174912500D03*
%TD*%
D34*
%TO.C,K19*%
X174770000Y-146875000D03*
X172230000Y-146875000D03*
X172230000Y-153125000D03*
X174770000Y-153125000D03*
%TD*%
D15*
%TO.C,R13*%
X272500000Y-173087500D03*
X272500000Y-174912500D03*
%TD*%
D42*
%TO.C,Q22*%
X173217500Y-181050000D03*
X173217500Y-182950000D03*
X175092500Y-182000000D03*
%TD*%
D41*
%TO.C,H2*%
X366000000Y-196000000D03*
%TD*%
D35*
%TO.C,J10*%
X214100000Y-189000000D03*
X247400000Y-189000000D03*
D44*
X239375000Y-186460000D03*
D37*
X237085000Y-186460000D03*
X234795000Y-186460000D03*
X232505000Y-186460000D03*
X230215000Y-186460000D03*
X227925000Y-186460000D03*
X225635000Y-186460000D03*
X223345000Y-186460000D03*
X221055000Y-186460000D03*
X240520000Y-189000000D03*
X238230000Y-189000000D03*
X235940000Y-189000000D03*
X233650000Y-189000000D03*
X231360000Y-189000000D03*
X229070000Y-189000000D03*
X226780000Y-189000000D03*
X224490000Y-189000000D03*
X222200000Y-189000000D03*
X239375000Y-191540000D03*
X237085000Y-191540000D03*
X234795000Y-191540000D03*
X232505000Y-191540000D03*
X230215000Y-191540000D03*
X227925000Y-191540000D03*
X225635000Y-191540000D03*
X223345000Y-191540000D03*
%TD*%
D15*
%TO.C,R12*%
X270250000Y-173087500D03*
X270250000Y-174912500D03*
%TD*%
D20*
%TO.C,R74*%
X276337500Y-81887500D03*
X278162500Y-81887500D03*
%TD*%
D13*
%TO.C,VC4*%
X254750000Y-179250000D03*
%TD*%
D45*
%TO.C,C1*%
X336000000Y-187338606D03*
D37*
X336000000Y-189838606D03*
%TD*%
D34*
%TO.C,K12*%
X226770000Y-146875000D03*
X224230000Y-146875000D03*
X224230000Y-153125000D03*
X226770000Y-153125000D03*
%TD*%
D14*
%TO.C,R39*%
X137000000Y-175912500D03*
X137000000Y-174087500D03*
%TD*%
D16*
%TO.C,DL3*%
X172155000Y-172963800D03*
%TD*%
D41*
%TO.C,H1*%
X54000000Y-196000000D03*
%TD*%
D14*
%TO.C,R83*%
X187750000Y-143912500D03*
X187750000Y-142087500D03*
%TD*%
D24*
%TO.C,R1*%
X152912500Y-84137500D03*
X151087500Y-84137500D03*
%TD*%
D20*
%TO.C,R67*%
X101250000Y-81950000D03*
X103075000Y-81950000D03*
%TD*%
D15*
%TO.C,R23*%
X293750000Y-173087500D03*
X293750000Y-174912500D03*
%TD*%
D45*
%TO.C,C2*%
X345750000Y-187338607D03*
D37*
X345750000Y-189838607D03*
%TD*%
D15*
%TO.C,R20*%
X287250000Y-173087500D03*
X287250000Y-174912500D03*
%TD*%
D34*
%TO.C,K13*%
X220270000Y-146875000D03*
X217730000Y-146875000D03*
X217730000Y-153125000D03*
X220270000Y-153125000D03*
%TD*%
D20*
%TO.C,R70*%
X176037500Y-82012500D03*
X177862500Y-82012500D03*
%TD*%
D14*
%TO.C,R41*%
X77180000Y-174162500D03*
X77180000Y-172337500D03*
%TD*%
D10*
%TO.C,Q23*%
X301250000Y-79700000D03*
X303150000Y-79700000D03*
X302200000Y-77825000D03*
%TD*%
D34*
%TO.C,K11*%
X233270000Y-146875000D03*
X230730000Y-146875000D03*
X230730000Y-153125000D03*
X233270000Y-153125000D03*
%TD*%
%TO.C,K17*%
X194270000Y-146875000D03*
X191730000Y-146875000D03*
X191730000Y-153125000D03*
X194270000Y-153125000D03*
%TD*%
D16*
%TO.C,DL2*%
X179180400Y-172963800D03*
%TD*%
D15*
%TO.C,R24*%
X295750000Y-173087500D03*
X295750000Y-174912500D03*
%TD*%
D10*
%TO.C,Q17*%
X201050000Y-79637500D03*
X202950000Y-79637500D03*
X202000000Y-77762500D03*
%TD*%
D21*
%TO.C,K3*%
X115000000Y-82700000D03*
X122600000Y-82700000D03*
X122600000Y-70000000D03*
X115000000Y-67460000D03*
%TD*%
%TO.C,K8*%
X290000000Y-82700000D03*
X297600000Y-82700000D03*
X297600000Y-70000000D03*
X290000000Y-67460000D03*
%TD*%
D13*
%TO.C,VC3*%
X257500000Y-180500000D03*
%TD*%
D16*
%TO.C,TTL5*%
X139500000Y-170750000D03*
%TD*%
D21*
%TO.C,K7*%
X190000000Y-82700000D03*
X197600000Y-82700000D03*
X197600000Y-70000000D03*
X190000000Y-67460000D03*
%TD*%
D14*
%TO.C,R78*%
X220250000Y-143912500D03*
X220250000Y-142087500D03*
%TD*%
D46*
%TO.C,MH2*%
X337655000Y-161935000D03*
%TD*%
%TO.C,MH1*%
X336385000Y-113675000D03*
%TD*%
%TO.C,MH4*%
X285585000Y-156855000D03*
%TD*%
%TO.C,MH5*%
X261455000Y-113675000D03*
%TD*%
%TO.C,MH6*%
X255105000Y-161935000D03*
%TD*%
%TO.C,MH3*%
X285585000Y-128915000D03*
%TD*%
M02*
