%TF.GenerationSoftware,KiCad,Pcbnew,9.0.6+1*%
%TF.CreationDate,Date%
%TF.ProjectId,REALTRA_TRIAL,5245414c-5452-4415-9f54-5249414c2e6b,+ (Unreleased)*%
%TF.SameCoordinates,Original*%
%TF.FileFunction,Paste,Bot*%
%TF.FilePolarity,Positive*%
%FSLAX46Y46*%
G04 Gerber Fmt 4.6, Leading zero omitted, Abs format (unit mm)*
G04 Created by KiCad*
%MOMM*%
%LPD*%
G01*
G04 APERTURE LIST*
G04 Aperture macros list*
%AMRoundRect*
0 Rectangle with rounded corners*
0 $1 Rounding radius*
0 $2 $3 $4 $5 $6 $7 $8 $9 X,Y pos of 4 corners*
0 Add a 4 corners polygon primitive as box body*
4,1,4,$2,$3,$4,$5,$6,$7,$8,$9,$2,$3,0*
0 Add four circle primitives for the rounded corners*
1,1,$1+$1,$2,$3*
1,1,$1+$1,$4,$5*
1,1,$1+$1,$6,$7*
1,1,$1+$1,$8,$9*
0 Add four rect primitives between the rounded corners*
20,1,$1+$1,$2,$3,$4,$5,0*
20,1,$1+$1,$4,$5,$6,$7,0*
20,1,$1+$1,$6,$7,$8,$9,0*
20,1,$1+$1,$8,$9,$2,$3,0*%
G04 Aperture macros list end*
%ADD10R,0.900000X1.800000*%
%ADD11R,3.200000X1.800000*%
%ADD12RoundRect,0.250000X-0.262500X-0.450000X0.262500X-0.450000X0.262500X0.450000X-0.262500X0.450000X0*%
%ADD13RoundRect,0.150000X-0.150000X0.587500X-0.150000X-0.587500X0.150000X-0.587500X0.150000X0.587500X0*%
%ADD14RoundRect,0.250000X-0.450000X0.262500X-0.450000X-0.262500X0.450000X-0.262500X0.450000X0.262500X0*%
%ADD15RoundRect,0.225000X-0.225000X-0.250000X0.225000X-0.250000X0.225000X0.250000X-0.225000X0.250000X0*%
%ADD16RoundRect,0.250000X0.450000X-0.262500X0.450000X0.262500X-0.450000X0.262500X-0.450000X-0.262500X0*%
%ADD17RoundRect,0.150000X0.150000X-0.587500X0.150000X0.587500X-0.150000X0.587500X-0.150000X-0.587500X0*%
G04 APERTURE END LIST*
D10*
%TO.C,Q30*%
X173700000Y-156750000D03*
X176000000Y-156750000D03*
X178300000Y-156750000D03*
D11*
X176000000Y-162750000D03*
%TD*%
D10*
%TO.C,Q34*%
X218950000Y-153980000D03*
X221250000Y-153980000D03*
X223550000Y-153980000D03*
D11*
X221250000Y-159980000D03*
%TD*%
D12*
%TO.C,R116*%
X228587500Y-149480000D03*
X230412500Y-149480000D03*
%TD*%
D13*
%TO.C,Q33*%
X219550000Y-145292500D03*
X221450000Y-145292500D03*
X220500000Y-147167500D03*
%TD*%
%TO.C,Q29*%
X174300000Y-148062500D03*
X176200000Y-148062500D03*
X175250000Y-149937500D03*
%TD*%
D12*
%TO.C,R114*%
X175337500Y-152250000D03*
X177162500Y-152250000D03*
%TD*%
%TO.C,R115*%
X227587500Y-141230000D03*
X229412500Y-141230000D03*
%TD*%
D10*
%TO.C,Q32*%
X227200000Y-153980000D03*
X229500000Y-153980000D03*
X231800000Y-153980000D03*
D11*
X229500000Y-159980000D03*
%TD*%
D14*
%TO.C,R102*%
X261750000Y-117837500D03*
X261750000Y-119662500D03*
%TD*%
D12*
%TO.C,R118*%
X219587500Y-141230000D03*
X221412500Y-141230000D03*
%TD*%
%TO.C,R119*%
X220587500Y-151500000D03*
X222412500Y-151500000D03*
%TD*%
D13*
%TO.C,Q28*%
X166050000Y-148062500D03*
X167950000Y-148062500D03*
X167000000Y-149937500D03*
%TD*%
D15*
%TO.C,C36*%
X227725000Y-143230000D03*
X229275000Y-143230000D03*
%TD*%
D16*
%TO.C,R32*%
X136750000Y-175912500D03*
X136750000Y-174087500D03*
%TD*%
D14*
%TO.C,R103*%
X295750000Y-117087500D03*
X295750000Y-118912500D03*
%TD*%
D12*
%TO.C,R113*%
X175337500Y-154250000D03*
X177162500Y-154250000D03*
%TD*%
D14*
%TO.C,R104*%
X293250000Y-117087500D03*
X293250000Y-118912500D03*
%TD*%
D12*
%TO.C,R112*%
X174587500Y-144000000D03*
X176412500Y-144000000D03*
%TD*%
%TO.C,R117*%
X228587500Y-151480000D03*
X230412500Y-151480000D03*
%TD*%
%TO.C,R120*%
X220587500Y-149480000D03*
X222412500Y-149480000D03*
%TD*%
%TO.C,R111*%
X166087500Y-144000000D03*
X167912500Y-144000000D03*
%TD*%
%TO.C,R109*%
X167087500Y-152250000D03*
X168912500Y-152250000D03*
%TD*%
D15*
%TO.C,C34*%
X166225000Y-146000000D03*
X167775000Y-146000000D03*
%TD*%
D16*
%TO.C,R31*%
X127750000Y-175912500D03*
X127750000Y-174087500D03*
%TD*%
D17*
%TO.C,Q2*%
X138862500Y-171687500D03*
X136962500Y-171687500D03*
X137912500Y-169812500D03*
%TD*%
%TO.C,Q1*%
X129450000Y-171687500D03*
X127550000Y-171687500D03*
X128500000Y-169812500D03*
%TD*%
D15*
%TO.C,C35*%
X174725000Y-146000000D03*
X176275000Y-146000000D03*
%TD*%
D16*
%TO.C,R37*%
X139000000Y-175912500D03*
X139000000Y-174087500D03*
%TD*%
D12*
%TO.C,R110*%
X167087500Y-154250000D03*
X168912500Y-154250000D03*
%TD*%
D13*
%TO.C,Q31*%
X227550000Y-145292500D03*
X229450000Y-145292500D03*
X228500000Y-147167500D03*
%TD*%
D10*
%TO.C,Q27*%
X165700000Y-156750000D03*
X168000000Y-156750000D03*
X170300000Y-156750000D03*
D11*
X168000000Y-162750000D03*
%TD*%
D15*
%TO.C,C37*%
X219725000Y-143230000D03*
X221275000Y-143230000D03*
%TD*%
M02*
