%TF.GenerationSoftware,KiCad,Pcbnew,9.0.6+1*%
%TF.CreationDate,Date%
%TF.ProjectId,REALTRA_TRIAL,5245414c-5452-4415-9f54-5249414c2e6b,+ (Unreleased)*%
%TF.SameCoordinates,Original*%
%TF.FileFunction,Paste,Top*%
%TF.FilePolarity,Positive*%
%FSLAX46Y46*%
G04 Gerber Fmt 4.6, Leading zero omitted, Abs format (unit mm)*
G04 Created by KiCad*
%MOMM*%
%LPD*%
G01*
G04 APERTURE LIST*
G04 Aperture macros list*
%AMRoundRect*
0 Rectangle with rounded corners*
0 $1 Rounding radius*
0 $2 $3 $4 $5 $6 $7 $8 $9 X,Y pos of 4 corners*
0 Add a 4 corners polygon primitive as box body*
4,1,4,$2,$3,$4,$5,$6,$7,$8,$9,$2,$3,0*
0 Add four circle primitives for the rounded corners*
1,1,$1+$1,$2,$3*
1,1,$1+$1,$4,$5*
1,1,$1+$1,$6,$7*
1,1,$1+$1,$8,$9*
0 Add four rect primitives between the rounded corners*
20,1,$1+$1,$2,$3,$4,$5,0*
20,1,$1+$1,$4,$5,$6,$7,0*
20,1,$1+$1,$6,$7,$8,$9,0*
20,1,$1+$1,$8,$9,$2,$3,0*%
G04 Aperture macros list end*
%ADD10RoundRect,0.150000X0.150000X-0.587500X0.150000X0.587500X-0.150000X0.587500X-0.150000X-0.587500X0*%
%ADD11RoundRect,0.250000X0.450000X-0.262500X0.450000X0.262500X-0.450000X0.262500X-0.450000X-0.262500X0*%
%ADD12RoundRect,0.250000X-0.450000X0.262500X-0.450000X-0.262500X0.450000X-0.262500X0.450000X0.262500X0*%
%ADD13RoundRect,0.250000X-0.262500X-0.450000X0.262500X-0.450000X0.262500X0.450000X-0.262500X0.450000X0*%
%ADD14RoundRect,0.250000X0.262500X0.450000X-0.262500X0.450000X-0.262500X-0.450000X0.262500X-0.450000X0*%
%ADD15R,0.900000X1.150000*%
%ADD16RoundRect,0.150000X-0.587500X-0.150000X0.587500X-0.150000X0.587500X0.150000X-0.587500X0.150000X0*%
G04 APERTURE END LIST*
D10*
%TO.C,Q16*%
X176000000Y-79700000D03*
X177900000Y-79700000D03*
X176950000Y-77825000D03*
%TD*%
D11*
%TO.C,R76*%
X233250000Y-143912500D03*
X233250000Y-142087500D03*
%TD*%
D12*
%TO.C,R29*%
X308500000Y-173087500D03*
X308500000Y-174912500D03*
%TD*%
%TO.C,R44*%
X171155000Y-181087500D03*
X171155000Y-182912500D03*
%TD*%
%TO.C,R21*%
X291500000Y-173087500D03*
X291500000Y-174912500D03*
%TD*%
D13*
%TO.C,R75*%
X301287500Y-82012500D03*
X303112500Y-82012500D03*
%TD*%
D12*
%TO.C,R14*%
X274500000Y-173087500D03*
X274500000Y-174912500D03*
%TD*%
D10*
%TO.C,Q12*%
X76050000Y-79637500D03*
X77950000Y-79637500D03*
X77000000Y-77762500D03*
%TD*%
D11*
%TO.C,R80*%
X207250000Y-143912500D03*
X207250000Y-142087500D03*
%TD*%
D10*
%TO.C,Q11*%
X101212500Y-79637500D03*
X103112500Y-79637500D03*
X102162500Y-77762500D03*
%TD*%
D14*
%TO.C,R9*%
X202912500Y-84200000D03*
X201087500Y-84200000D03*
%TD*%
%TO.C,R5*%
X303112500Y-84262500D03*
X301287500Y-84262500D03*
%TD*%
D13*
%TO.C,R72*%
X226037500Y-82012500D03*
X227862500Y-82012500D03*
%TD*%
D12*
%TO.C,R25*%
X300000000Y-173087500D03*
X300000000Y-174912500D03*
%TD*%
D11*
%TO.C,R79*%
X213750000Y-143912500D03*
X213750000Y-142087500D03*
%TD*%
D13*
%TO.C,R66*%
X76087500Y-81950000D03*
X77912500Y-81950000D03*
%TD*%
%TO.C,R73*%
X250675000Y-81950000D03*
X252500000Y-81950000D03*
%TD*%
D11*
%TO.C,R85*%
X181250000Y-143912500D03*
X181250000Y-142087500D03*
%TD*%
D12*
%TO.C,R17*%
X283000000Y-173087500D03*
X283000000Y-174912500D03*
%TD*%
D14*
%TO.C,R4*%
X77912500Y-84200000D03*
X76087500Y-84200000D03*
%TD*%
D12*
%TO.C,R18*%
X281000000Y-173087500D03*
X281000000Y-174912500D03*
%TD*%
D15*
%TO.C,K20*%
X181270000Y-146875000D03*
X178730000Y-146875000D03*
X178730000Y-153125000D03*
X181270000Y-153125000D03*
%TD*%
D13*
%TO.C,R69*%
X151087500Y-81887500D03*
X152912500Y-81887500D03*
%TD*%
D10*
%TO.C,Q15*%
X250637500Y-79637500D03*
X252537500Y-79637500D03*
X251587500Y-77762500D03*
%TD*%
D14*
%TO.C,R10*%
X177862500Y-84262500D03*
X176037500Y-84262500D03*
%TD*%
D12*
%TO.C,R34*%
X121000000Y-174087500D03*
X121000000Y-175912500D03*
%TD*%
%TO.C,R11*%
X268250000Y-173087500D03*
X268250000Y-174912500D03*
%TD*%
D11*
%TO.C,R40*%
X139500000Y-175912500D03*
X139500000Y-174087500D03*
%TD*%
D12*
%TO.C,R43*%
X184905000Y-181087500D03*
X184905000Y-182912500D03*
%TD*%
D13*
%TO.C,R71*%
X201087500Y-81950000D03*
X202912500Y-81950000D03*
%TD*%
D12*
%TO.C,R36*%
X127000000Y-174087500D03*
X127000000Y-175912500D03*
%TD*%
D15*
%TO.C,K14*%
X213770000Y-146875000D03*
X211230000Y-146875000D03*
X211230000Y-153125000D03*
X213770000Y-153125000D03*
%TD*%
D11*
%TO.C,R84*%
X174750000Y-143912500D03*
X174750000Y-142087500D03*
%TD*%
D12*
%TO.C,R30*%
X306500000Y-173087500D03*
X306500000Y-174912500D03*
%TD*%
%TO.C,R19*%
X285250000Y-173087500D03*
X285250000Y-174912500D03*
%TD*%
D14*
%TO.C,R6*%
X278162500Y-84137500D03*
X276337500Y-84137500D03*
%TD*%
D11*
%TO.C,R82*%
X194250000Y-143912500D03*
X194250000Y-142087500D03*
%TD*%
D12*
%TO.C,R15*%
X276750000Y-173087500D03*
X276750000Y-174912500D03*
%TD*%
%TO.C,R42*%
X178055000Y-181087500D03*
X178055000Y-182912500D03*
%TD*%
D14*
%TO.C,R7*%
X252500000Y-84200000D03*
X250675000Y-84200000D03*
%TD*%
D10*
%TO.C,Q10*%
X151050000Y-79575000D03*
X152950000Y-79575000D03*
X152000000Y-77700000D03*
%TD*%
D14*
%TO.C,R3*%
X103075000Y-84200000D03*
X101250000Y-84200000D03*
%TD*%
%TO.C,R2*%
X128000000Y-84200000D03*
X126175000Y-84200000D03*
%TD*%
D11*
%TO.C,R77*%
X226750000Y-143912500D03*
X226750000Y-142087500D03*
%TD*%
D15*
%TO.C,K15*%
X207270000Y-146875000D03*
X204730000Y-146875000D03*
X204730000Y-153125000D03*
X207270000Y-153125000D03*
%TD*%
D16*
%TO.C,Q13*%
X180117500Y-181050000D03*
X180117500Y-182950000D03*
X181992500Y-182000000D03*
%TD*%
D12*
%TO.C,R22*%
X289500000Y-173087500D03*
X289500000Y-174912500D03*
%TD*%
D15*
%TO.C,K16*%
X200770000Y-146875000D03*
X198230000Y-146875000D03*
X198230000Y-153125000D03*
X200770000Y-153125000D03*
%TD*%
D11*
%TO.C,R57*%
X179155000Y-178262500D03*
X179155000Y-176437500D03*
%TD*%
D10*
%TO.C,Q9*%
X126137500Y-79637500D03*
X128037500Y-79637500D03*
X127087500Y-77762500D03*
%TD*%
D15*
%TO.C,K18*%
X187770000Y-146875000D03*
X185230000Y-146875000D03*
X185230000Y-153125000D03*
X187770000Y-153125000D03*
%TD*%
D13*
%TO.C,R68*%
X126175000Y-81950000D03*
X128000000Y-81950000D03*
%TD*%
D14*
%TO.C,R8*%
X227862500Y-84262500D03*
X226037500Y-84262500D03*
%TD*%
D16*
%TO.C,Q4*%
X186967500Y-181050000D03*
X186967500Y-182950000D03*
X188842500Y-182000000D03*
%TD*%
D12*
%TO.C,R26*%
X298000000Y-173087500D03*
X298000000Y-174912500D03*
%TD*%
D11*
%TO.C,R56*%
X185905000Y-178262500D03*
X185905000Y-176437500D03*
%TD*%
D10*
%TO.C,Q14*%
X226000000Y-79700000D03*
X227900000Y-79700000D03*
X226950000Y-77825000D03*
%TD*%
D12*
%TO.C,R62*%
X172155000Y-176437500D03*
X172155000Y-178262500D03*
%TD*%
D11*
%TO.C,R81*%
X200750000Y-143912500D03*
X200750000Y-142087500D03*
%TD*%
D10*
%TO.C,Q24*%
X276300000Y-79575000D03*
X278200000Y-79575000D03*
X277250000Y-77700000D03*
%TD*%
D11*
%TO.C,R65*%
X77180000Y-170250000D03*
X77180000Y-168425000D03*
%TD*%
D12*
%TO.C,R16*%
X278750000Y-173087500D03*
X278750000Y-174912500D03*
%TD*%
%TO.C,R27*%
X302250000Y-173087500D03*
X302250000Y-174912500D03*
%TD*%
%TO.C,R35*%
X129400000Y-174087500D03*
X129400000Y-175912500D03*
%TD*%
%TO.C,R33*%
X124000000Y-174087500D03*
X124000000Y-175912500D03*
%TD*%
D11*
%TO.C,R38*%
X118000000Y-175825000D03*
X118000000Y-174000000D03*
%TD*%
D12*
%TO.C,R28*%
X304250000Y-173087500D03*
X304250000Y-174912500D03*
%TD*%
D15*
%TO.C,K19*%
X174770000Y-146875000D03*
X172230000Y-146875000D03*
X172230000Y-153125000D03*
X174770000Y-153125000D03*
%TD*%
D12*
%TO.C,R13*%
X272500000Y-173087500D03*
X272500000Y-174912500D03*
%TD*%
D16*
%TO.C,Q22*%
X173217500Y-181050000D03*
X173217500Y-182950000D03*
X175092500Y-182000000D03*
%TD*%
D12*
%TO.C,R12*%
X270250000Y-173087500D03*
X270250000Y-174912500D03*
%TD*%
D13*
%TO.C,R74*%
X276337500Y-81887500D03*
X278162500Y-81887500D03*
%TD*%
D15*
%TO.C,K12*%
X226770000Y-146875000D03*
X224230000Y-146875000D03*
X224230000Y-153125000D03*
X226770000Y-153125000D03*
%TD*%
D11*
%TO.C,R39*%
X137000000Y-175912500D03*
X137000000Y-174087500D03*
%TD*%
%TO.C,R83*%
X187750000Y-143912500D03*
X187750000Y-142087500D03*
%TD*%
D14*
%TO.C,R1*%
X152912500Y-84137500D03*
X151087500Y-84137500D03*
%TD*%
D13*
%TO.C,R67*%
X101250000Y-81950000D03*
X103075000Y-81950000D03*
%TD*%
D12*
%TO.C,R23*%
X293750000Y-173087500D03*
X293750000Y-174912500D03*
%TD*%
%TO.C,R20*%
X287250000Y-173087500D03*
X287250000Y-174912500D03*
%TD*%
D15*
%TO.C,K13*%
X220270000Y-146875000D03*
X217730000Y-146875000D03*
X217730000Y-153125000D03*
X220270000Y-153125000D03*
%TD*%
D13*
%TO.C,R70*%
X176037500Y-82012500D03*
X177862500Y-82012500D03*
%TD*%
D11*
%TO.C,R41*%
X77180000Y-174162500D03*
X77180000Y-172337500D03*
%TD*%
D10*
%TO.C,Q23*%
X301250000Y-79700000D03*
X303150000Y-79700000D03*
X302200000Y-77825000D03*
%TD*%
D15*
%TO.C,K11*%
X233270000Y-146875000D03*
X230730000Y-146875000D03*
X230730000Y-153125000D03*
X233270000Y-153125000D03*
%TD*%
%TO.C,K17*%
X194270000Y-146875000D03*
X191730000Y-146875000D03*
X191730000Y-153125000D03*
X194270000Y-153125000D03*
%TD*%
D12*
%TO.C,R24*%
X295750000Y-173087500D03*
X295750000Y-174912500D03*
%TD*%
D10*
%TO.C,Q17*%
X201050000Y-79637500D03*
X202950000Y-79637500D03*
X202000000Y-77762500D03*
%TD*%
D11*
%TO.C,R78*%
X220250000Y-143912500D03*
X220250000Y-142087500D03*
%TD*%
M02*
