%TF.GenerationSoftware,KiCad,Pcbnew,9.0.6+1*%
%TF.CreationDate,Date%
%TF.ProjectId,REALTRA_TRIAL,5245414c-5452-4415-9f54-5249414c2e6b,+ (Unreleased)*%
%TF.SameCoordinates,Original*%
%TF.FileFunction,Legend,Bot*%
%TF.FilePolarity,Positive*%
%FSLAX46Y46*%
G04 Gerber Fmt 4.6, Leading zero omitted, Abs format (unit mm)*
G04 Created by KiCad*
%MOMM*%
%LPD*%
G01*
G04 APERTURE LIST*
G04 Aperture macros list*
%AMRoundRect*
0 Rectangle with rounded corners*
0 $1 Rounding radius*
0 $2 $3 $4 $5 $6 $7 $8 $9 X,Y pos of 4 corners*
0 Add a 4 corners polygon primitive as box body*
4,1,4,$2,$3,$4,$5,$6,$7,$8,$9,$2,$3,0*
0 Add four circle primitives for the rounded corners*
1,1,$1+$1,$2,$3*
1,1,$1+$1,$4,$5*
1,1,$1+$1,$6,$7*
1,1,$1+$1,$8,$9*
0 Add four rect primitives between the rounded corners*
20,1,$1+$1,$2,$3,$4,$5,0*
20,1,$1+$1,$4,$5,$6,$7,0*
20,1,$1+$1,$6,$7,$8,$9,0*
20,1,$1+$1,$8,$9,$2,$3,0*%
G04 Aperture macros list end*
%ADD10C,0.500000*%
%ADD11C,0.300000*%
%ADD12C,0.600000*%
%ADD13C,0.250000*%
%ADD14C,0.254000*%
%ADD15C,0.150000*%
%ADD16C,0.200000*%
%ADD17C,0.120000*%
%ADD18RoundRect,0.050000X1.200000X1.200000X-1.200000X1.200000X-1.200000X-1.200000X1.200000X-1.200000X0*%
%ADD19C,2.500000*%
%ADD20RoundRect,0.050000X-0.850000X0.850000X-0.850000X-0.850000X0.850000X-0.850000X0.850000X0.850000X0*%
%ADD21C,1.800000*%
%ADD22RoundRect,0.050000X0.850000X-0.850000X0.850000X0.850000X-0.850000X0.850000X-0.850000X-0.850000X0*%
%ADD23C,2.050000*%
%ADD24RoundRect,0.050000X1.650000X-1.650000X1.650000X1.650000X-1.650000X1.650000X-1.650000X-1.650000X0*%
%ADD25C,1.900000*%
%ADD26C,3.600000*%
%ADD27RoundRect,0.050000X1.000000X-0.952500X1.000000X0.952500X-1.000000X0.952500X-1.000000X-0.952500X0*%
%ADD28O,2.100000X2.005000*%
%ADD29RoundRect,0.050000X-0.750000X-0.750000X0.750000X-0.750000X0.750000X0.750000X-0.750000X0.750000X0*%
%ADD30C,1.600000*%
%ADD31C,4.675000*%
%ADD32RoundRect,0.050000X-0.825000X-0.825000X0.825000X-0.825000X0.825000X0.825000X-0.825000X0.825000X0*%
%ADD33C,1.750000*%
%ADD34C,4.900000*%
%ADD35C,4.100000*%
%ADD36RoundRect,0.050000X0.800000X-0.800000X0.800000X0.800000X-0.800000X0.800000X-0.800000X-0.800000X0*%
%ADD37C,1.700000*%
%ADD38C,5.560000*%
%ADD39C,4.843000*%
%ADD40C,5.700000*%
%ADD41RoundRect,0.050000X0.850000X0.850000X-0.850000X0.850000X-0.850000X-0.850000X0.850000X-0.850000X0*%
%ADD42RoundRect,0.050000X-0.800000X-0.800000X0.800000X-0.800000X0.800000X0.800000X-0.800000X0.800000X0*%
%ADD43RoundRect,0.265625X-0.584375X0.584375X-0.584375X-0.584375X0.584375X-0.584375X0.584375X0.584375X0*%
%ADD44C,3.300000*%
%ADD45RoundRect,0.050000X0.450000X0.900000X-0.450000X0.900000X-0.450000X-0.900000X0.450000X-0.900000X0*%
%ADD46RoundRect,0.050000X-1.600000X0.900000X-1.600000X-0.900000X1.600000X-0.900000X1.600000X0.900000X0*%
%ADD47RoundRect,0.274390X-0.288110X-0.475610X0.288110X-0.475610X0.288110X0.475610X-0.288110X0.475610X0*%
%ADD48RoundRect,0.175000X-0.175000X0.612500X-0.175000X-0.612500X0.175000X-0.612500X0.175000X0.612500X0*%
%ADD49RoundRect,0.274390X-0.475610X0.288110X-0.475610X-0.288110X0.475610X-0.288110X0.475610X0.288110X0*%
%ADD50RoundRect,0.250000X-0.250000X-0.275000X0.250000X-0.275000X0.250000X0.275000X-0.250000X0.275000X0*%
%ADD51RoundRect,0.274390X0.475610X-0.288110X0.475610X0.288110X-0.475610X0.288110X-0.475610X-0.288110X0*%
%ADD52RoundRect,0.175000X0.175000X-0.612500X0.175000X0.612500X-0.175000X0.612500X-0.175000X-0.612500X0*%
G04 APERTURE END LIST*
D10*
X132740000Y-171035000D02*
X133960000Y-169765000D01*
X131460000Y-169765000D02*
X132740000Y-171035000D01*
D11*
X137214214Y-164900000D02*
G75*
G02*
X135800000Y-164900000I-707107J0D01*
G01*
X135800000Y-164900000D02*
G75*
G02*
X137214214Y-164900000I707107J0D01*
G01*
X132730000Y-171872500D02*
X132730000Y-171372500D01*
D10*
X135293107Y-167654500D02*
X136573107Y-168924500D01*
D12*
X132730000Y-170480000D02*
X132730000Y-168265000D01*
D10*
X136573107Y-168924500D02*
X137793107Y-167654500D01*
D11*
X130980000Y-171872500D02*
X132480000Y-171872500D01*
D12*
X136563107Y-168369500D02*
X136563107Y-166154500D01*
D13*
G36*
X133060000Y-160127224D02*
G01*
X132223712Y-160127224D01*
X132223712Y-159830041D01*
X132055673Y-159830041D01*
X132055673Y-160625907D01*
X132223712Y-160625907D01*
X132223712Y-160329396D01*
X133060000Y-160329396D01*
X133060000Y-160127224D01*
G37*
G36*
X133060000Y-160654849D02*
G01*
X132537564Y-161001308D01*
X132055673Y-160686967D01*
X132055673Y-160923333D01*
X132356214Y-161121598D01*
X132055673Y-161320900D01*
X132055673Y-161555190D01*
X132536282Y-161240422D01*
X133060000Y-161585964D01*
X133060000Y-161342088D01*
X132719830Y-161120193D01*
X133060000Y-160897383D01*
X133060000Y-160654849D01*
G37*
G36*
X132794263Y-161666381D02*
G01*
X132602777Y-161666381D01*
X132602777Y-162043492D01*
X132794263Y-162043492D01*
X132794263Y-161666381D01*
G37*
G36*
X133060000Y-162324371D02*
G01*
X132953449Y-162324371D01*
X132991374Y-162355898D01*
X133022312Y-162390545D01*
X133046871Y-162428541D01*
X133065291Y-162469793D01*
X133076012Y-162510487D01*
X133079539Y-162551151D01*
X133073209Y-162611938D01*
X133054599Y-162667182D01*
X133023391Y-162718248D01*
X132978117Y-162766024D01*
X132925478Y-162802836D01*
X132861390Y-162830410D01*
X132783523Y-162848129D01*
X132688995Y-162854501D01*
X132597651Y-162848247D01*
X132522608Y-162830872D01*
X132461008Y-162803841D01*
X132410558Y-162767733D01*
X132367858Y-162721116D01*
X132337950Y-162669792D01*
X132319833Y-162612746D01*
X132313593Y-162548464D01*
X132319056Y-162497234D01*
X132462093Y-162497234D01*
X132468372Y-162541467D01*
X132486745Y-162579375D01*
X132518208Y-162612639D01*
X132558391Y-162635726D01*
X132617217Y-162651634D01*
X132701085Y-162657763D01*
X132779664Y-162651788D01*
X132836034Y-162636104D01*
X132875657Y-162613005D01*
X132907102Y-162580141D01*
X132925040Y-162544517D01*
X132931039Y-162504745D01*
X132926225Y-162465701D01*
X132912127Y-162431304D01*
X132888284Y-162400350D01*
X132853004Y-162372243D01*
X132814398Y-162354062D01*
X132759407Y-162341511D01*
X132682950Y-162336706D01*
X132609847Y-162342673D01*
X132555981Y-162358565D01*
X132516803Y-162382440D01*
X132486092Y-162416015D01*
X132468189Y-162453758D01*
X132462093Y-162497234D01*
X132319056Y-162497234D01*
X132319810Y-162490167D01*
X132338207Y-162436439D01*
X132369295Y-162386008D01*
X132414710Y-162338049D01*
X132055673Y-162338049D01*
X132055673Y-162146074D01*
X133060000Y-162146074D01*
X133060000Y-162324371D01*
G37*
G36*
X132333133Y-162918309D02*
G01*
X132333133Y-163122557D01*
X132850500Y-163296031D01*
X132333133Y-163465474D01*
X132333133Y-163664227D01*
X133033072Y-163408077D01*
X133161849Y-163362342D01*
X133221019Y-163336033D01*
X133258691Y-163314166D01*
X133289361Y-163289200D01*
X133312974Y-163261531D01*
X133331045Y-163229419D01*
X133345397Y-163188442D01*
X133353950Y-163143505D01*
X133356999Y-163090439D01*
X133354104Y-163035530D01*
X133345458Y-162981812D01*
X133195615Y-162964715D01*
X133202486Y-163008841D01*
X133204591Y-163045987D01*
X133199673Y-163088818D01*
X133186226Y-163120955D01*
X133164902Y-163145027D01*
X133121260Y-163172693D01*
X133063907Y-163194242D01*
X132333133Y-162918309D01*
G37*
G36*
X133060000Y-164263354D02*
G01*
X132833342Y-164346031D01*
X132833342Y-164746284D01*
X133060000Y-164833722D01*
X133060000Y-165053724D01*
X132055673Y-164652739D01*
X132055673Y-164543440D01*
X132290146Y-164543440D01*
X132665303Y-164681437D01*
X132665303Y-164408190D01*
X132290146Y-164543440D01*
X132055673Y-164543440D01*
X132055673Y-164438904D01*
X133060000Y-164048848D01*
X133060000Y-164263354D01*
G37*
G36*
X133060000Y-165317812D02*
G01*
X133060000Y-165125837D01*
X132333133Y-165125837D01*
X132333133Y-165304134D01*
X132436264Y-165304134D01*
X132371009Y-165351237D01*
X132338384Y-165386444D01*
X132319867Y-165425224D01*
X132313593Y-165469426D01*
X132317531Y-165512194D01*
X132329417Y-165554118D01*
X132349741Y-165595821D01*
X132516926Y-165536409D01*
X132492738Y-165487720D01*
X132485540Y-165446222D01*
X132491309Y-165408488D01*
X132507950Y-165377896D01*
X132536543Y-165354473D01*
X132588855Y-165333871D01*
X132663211Y-165323004D01*
X132834075Y-165317812D01*
X133060000Y-165317812D01*
G37*
G36*
X132785213Y-165641540D02*
G01*
X132861352Y-165659256D01*
X132924836Y-165687018D01*
X132977751Y-165724354D01*
X133023308Y-165772493D01*
X133054618Y-165823577D01*
X133073227Y-165878468D01*
X133079539Y-165938494D01*
X133071763Y-165998923D01*
X133047604Y-166060432D01*
X133023375Y-166098352D01*
X132992235Y-166133226D01*
X132953449Y-166165273D01*
X133060000Y-166165273D01*
X133060000Y-166343571D01*
X132055673Y-166343571D01*
X132055673Y-166151657D01*
X132414710Y-166151657D01*
X132369295Y-166103698D01*
X132338207Y-166053267D01*
X132319810Y-165999538D01*
X132318985Y-165991800D01*
X132462093Y-165991800D01*
X132468372Y-166036033D01*
X132486745Y-166073940D01*
X132518208Y-166107205D01*
X132558403Y-166130270D01*
X132617437Y-166146188D01*
X132701817Y-166152329D01*
X132776798Y-166146293D01*
X132832572Y-166130161D01*
X132873581Y-166105861D01*
X132906175Y-166071773D01*
X132924800Y-166034686D01*
X132931039Y-165993143D01*
X132926228Y-165953715D01*
X132912264Y-165919713D01*
X132888850Y-165889818D01*
X132854408Y-165863389D01*
X132817310Y-165847194D01*
X132762160Y-165835733D01*
X132682950Y-165831271D01*
X132610810Y-165837239D01*
X132557075Y-165853217D01*
X132517475Y-165877372D01*
X132486301Y-165911167D01*
X132468222Y-165948801D01*
X132462093Y-165991800D01*
X132318985Y-165991800D01*
X132313593Y-165941242D01*
X132319833Y-165876960D01*
X132337950Y-165819914D01*
X132367858Y-165768590D01*
X132410558Y-165721973D01*
X132460962Y-165686041D01*
X132523208Y-165658997D01*
X132599794Y-165641522D01*
X132693818Y-165635205D01*
X132785213Y-165641540D01*
G37*
G36*
X133060000Y-167010598D02*
G01*
X132951372Y-167010598D01*
X132987352Y-166981571D01*
X133018302Y-166947009D01*
X133044490Y-166906367D01*
X133064058Y-166862270D01*
X133075658Y-166817057D01*
X133079539Y-166770141D01*
X133075818Y-166722224D01*
X133064989Y-166678743D01*
X133047238Y-166638921D01*
X133022520Y-166603455D01*
X132992467Y-166575707D01*
X132956502Y-166554902D01*
X132916592Y-166541458D01*
X132863783Y-166532353D01*
X132794996Y-166528951D01*
X132333133Y-166528951D01*
X132333133Y-166720926D01*
X132667745Y-166720926D01*
X132806967Y-166724560D01*
X132855935Y-166731489D01*
X132887132Y-166746564D01*
X132910828Y-166770080D01*
X132925699Y-166800867D01*
X132931039Y-166841154D01*
X132924212Y-166887999D01*
X132903989Y-166929265D01*
X132873170Y-166962430D01*
X132836762Y-166982571D01*
X132782469Y-166992102D01*
X132640329Y-166996920D01*
X132333133Y-166996920D01*
X132333133Y-167188895D01*
X133060000Y-167188895D01*
X133060000Y-167010598D01*
G37*
G36*
X132231528Y-167387953D02*
G01*
X132055673Y-167387953D01*
X132055673Y-167579867D01*
X132231528Y-167579867D01*
X132231528Y-167387953D01*
G37*
G36*
X133060000Y-167387953D02*
G01*
X132333133Y-167387953D01*
X132333133Y-167579867D01*
X133060000Y-167579867D01*
X133060000Y-167387953D01*
G37*
G36*
X136830000Y-155804692D02*
G01*
X136411856Y-155804692D01*
X136411856Y-155845664D01*
X136415230Y-155910602D01*
X136423152Y-155947452D01*
X136438630Y-155977928D01*
X136464734Y-156008269D01*
X136506484Y-156041806D01*
X136611769Y-156114820D01*
X136830000Y-156260999D01*
X136830000Y-156502800D01*
X136634605Y-156380556D01*
X136527770Y-156310020D01*
X136472001Y-156265396D01*
X136429120Y-156218320D01*
X136387920Y-156157135D01*
X136373810Y-156222695D01*
X136353246Y-156276354D01*
X136326900Y-156320028D01*
X136294924Y-156355216D01*
X136256254Y-156383806D01*
X136212826Y-156404382D01*
X136163744Y-156417099D01*
X136107834Y-156421528D01*
X136049599Y-156416503D01*
X135997109Y-156401877D01*
X135949260Y-156377808D01*
X135907234Y-156344970D01*
X135875411Y-156306380D01*
X135852784Y-156261304D01*
X135839276Y-156211415D01*
X135829501Y-156136299D01*
X135825673Y-156028053D01*
X135825673Y-155962473D01*
X135993712Y-155962473D01*
X135997192Y-156110057D01*
X136011782Y-156154558D01*
X136037065Y-156186200D01*
X136059468Y-156200809D01*
X136086666Y-156209937D01*
X136119924Y-156213189D01*
X136162912Y-156207771D01*
X136196189Y-156192672D01*
X136222054Y-156168431D01*
X136239176Y-156136008D01*
X136247425Y-156086502D01*
X136251632Y-155954291D01*
X136251632Y-155804692D01*
X135993712Y-155804692D01*
X135993712Y-155962473D01*
X135825673Y-155962473D01*
X135825673Y-155602459D01*
X136830000Y-155602459D01*
X136830000Y-155804692D01*
G37*
G36*
X136830000Y-156510188D02*
G01*
X136307564Y-156856646D01*
X135825673Y-156542306D01*
X135825673Y-156778672D01*
X136126214Y-156976936D01*
X135825673Y-157176238D01*
X135825673Y-157410528D01*
X136306282Y-157095760D01*
X136830000Y-157441303D01*
X136830000Y-157197426D01*
X136489830Y-156975532D01*
X136830000Y-156752721D01*
X136830000Y-156510188D01*
G37*
G36*
X136564263Y-157521720D02*
G01*
X136372777Y-157521720D01*
X136372777Y-157898831D01*
X136564263Y-157898831D01*
X136564263Y-157521720D01*
G37*
G36*
X136103133Y-157925636D02*
G01*
X136103133Y-158032187D01*
X136048483Y-158032187D01*
X135963011Y-158037894D01*
X135911891Y-158051666D01*
X135884414Y-158067723D01*
X135860013Y-158091186D01*
X135838435Y-158123351D01*
X135823277Y-158159298D01*
X135813540Y-158202838D01*
X135810041Y-158255547D01*
X135816218Y-158336644D01*
X135834771Y-158416076D01*
X135969471Y-158390125D01*
X135961202Y-158344617D01*
X135958541Y-158302015D01*
X135963987Y-158264403D01*
X135977897Y-158242175D01*
X136002563Y-158229558D01*
X136052208Y-158224101D01*
X136103133Y-158224101D01*
X136103133Y-158367594D01*
X136251632Y-158367594D01*
X136251632Y-158224101D01*
X136830000Y-158224101D01*
X136830000Y-158032187D01*
X136251632Y-158032187D01*
X136251632Y-157925636D01*
X136103133Y-157925636D01*
G37*
G36*
X136539336Y-158436908D02*
G01*
X136610107Y-158452964D01*
X136670509Y-158478358D01*
X136724461Y-158514636D01*
X136768674Y-158560176D01*
X136803988Y-158615989D01*
X136829387Y-158677664D01*
X136844485Y-158740844D01*
X136849539Y-158806254D01*
X136842415Y-158884984D01*
X136821799Y-158954721D01*
X136787992Y-159017213D01*
X136740179Y-159073700D01*
X136682394Y-159119888D01*
X136618121Y-159152785D01*
X136546072Y-159172955D01*
X136464490Y-159179945D01*
X136383583Y-159173015D01*
X136312228Y-159153030D01*
X136248666Y-159120454D01*
X136191610Y-159074738D01*
X136144632Y-159018834D01*
X136111215Y-158956210D01*
X136090714Y-158885526D01*
X136083652Y-158805582D01*
X136239909Y-158805582D01*
X136246423Y-158853065D01*
X136265566Y-158894525D01*
X136298344Y-158931612D01*
X136340152Y-158958671D01*
X136394557Y-158976134D01*
X136465162Y-158982536D01*
X136537696Y-158976079D01*
X136592957Y-158958566D01*
X136634849Y-158931612D01*
X136667590Y-158894529D01*
X136686715Y-158853069D01*
X136693224Y-158805582D01*
X136686723Y-158758081D01*
X136667603Y-158716493D01*
X136634849Y-158679187D01*
X136592955Y-158652005D01*
X136538110Y-158634419D01*
X136466566Y-158627957D01*
X136395023Y-158634420D01*
X136340200Y-158652007D01*
X136298344Y-158679187D01*
X136265554Y-158716497D01*
X136246415Y-158758086D01*
X136239909Y-158805582D01*
X136083652Y-158805582D01*
X136083593Y-158804911D01*
X136089046Y-158735081D01*
X136104982Y-158671096D01*
X136131221Y-158611898D01*
X136167628Y-158558771D01*
X136213289Y-158514488D01*
X136269218Y-158478358D01*
X136330826Y-158451943D01*
X136392901Y-158436387D01*
X136456186Y-158431219D01*
X136539336Y-158436908D01*
G37*
G36*
X136830000Y-159514253D02*
G01*
X136830000Y-159322278D01*
X136103133Y-159322278D01*
X136103133Y-159500575D01*
X136206264Y-159500575D01*
X136141009Y-159547678D01*
X136108384Y-159582885D01*
X136089867Y-159621665D01*
X136083593Y-159665867D01*
X136087531Y-159708635D01*
X136099417Y-159750559D01*
X136119741Y-159792262D01*
X136286926Y-159732850D01*
X136262738Y-159684161D01*
X136255540Y-159642663D01*
X136261309Y-159604929D01*
X136277950Y-159574337D01*
X136306543Y-159550914D01*
X136358855Y-159530312D01*
X136433211Y-159519445D01*
X136604075Y-159514253D01*
X136830000Y-159514253D01*
G37*
G36*
X136830000Y-160351212D02*
G01*
X136603342Y-160433888D01*
X136603342Y-160834141D01*
X136830000Y-160921580D01*
X136830000Y-161141582D01*
X135825673Y-160740596D01*
X135825673Y-160631297D01*
X136060146Y-160631297D01*
X136435303Y-160769295D01*
X136435303Y-160496048D01*
X136060146Y-160631297D01*
X135825673Y-160631297D01*
X135825673Y-160526762D01*
X136830000Y-160136706D01*
X136830000Y-160351212D01*
G37*
G36*
X136830000Y-161405669D02*
G01*
X136830000Y-161213695D01*
X136103133Y-161213695D01*
X136103133Y-161391992D01*
X136206264Y-161391992D01*
X136141009Y-161439094D01*
X136108384Y-161474302D01*
X136089867Y-161513081D01*
X136083593Y-161557283D01*
X136087531Y-161600051D01*
X136099417Y-161641976D01*
X136119741Y-161683679D01*
X136286926Y-161624267D01*
X136262738Y-161575577D01*
X136255540Y-161534080D01*
X136261309Y-161496346D01*
X136277950Y-161465753D01*
X136306543Y-161442331D01*
X136358855Y-161421728D01*
X136433211Y-161410862D01*
X136604075Y-161405669D01*
X136830000Y-161405669D01*
G37*
G36*
X136555213Y-161729397D02*
G01*
X136631352Y-161747113D01*
X136694836Y-161774876D01*
X136747751Y-161812212D01*
X136793308Y-161860351D01*
X136824618Y-161911435D01*
X136843227Y-161966326D01*
X136849539Y-162026352D01*
X136841763Y-162086781D01*
X136817604Y-162148290D01*
X136793375Y-162186210D01*
X136762235Y-162221084D01*
X136723449Y-162253131D01*
X136830000Y-162253131D01*
X136830000Y-162431428D01*
X135825673Y-162431428D01*
X135825673Y-162239515D01*
X136184710Y-162239515D01*
X136139295Y-162191555D01*
X136108207Y-162141124D01*
X136089810Y-162087396D01*
X136088985Y-162079658D01*
X136232093Y-162079658D01*
X136238372Y-162123890D01*
X136256745Y-162161798D01*
X136288208Y-162195062D01*
X136328403Y-162218127D01*
X136387437Y-162234045D01*
X136471817Y-162240186D01*
X136546798Y-162234151D01*
X136602572Y-162218019D01*
X136643581Y-162193719D01*
X136676175Y-162159631D01*
X136694800Y-162122543D01*
X136701039Y-162081001D01*
X136696228Y-162041573D01*
X136682264Y-162007570D01*
X136658850Y-161977676D01*
X136624408Y-161951247D01*
X136587310Y-161935051D01*
X136532160Y-161923591D01*
X136452950Y-161919129D01*
X136380810Y-161925097D01*
X136327075Y-161941075D01*
X136287475Y-161965230D01*
X136256301Y-161999025D01*
X136238222Y-162036659D01*
X136232093Y-162079658D01*
X136088985Y-162079658D01*
X136083593Y-162029099D01*
X136089833Y-161964817D01*
X136107950Y-161907771D01*
X136137858Y-161856448D01*
X136180558Y-161809830D01*
X136230962Y-161773899D01*
X136293208Y-161746855D01*
X136369794Y-161729379D01*
X136463818Y-161723063D01*
X136555213Y-161729397D01*
G37*
G36*
X136830000Y-163098456D02*
G01*
X136721372Y-163098456D01*
X136757352Y-163069429D01*
X136788302Y-163034866D01*
X136814490Y-162994225D01*
X136834058Y-162950128D01*
X136845658Y-162904915D01*
X136849539Y-162857998D01*
X136845818Y-162810082D01*
X136834989Y-162766600D01*
X136817238Y-162726779D01*
X136792520Y-162691312D01*
X136762467Y-162663564D01*
X136726502Y-162642759D01*
X136686592Y-162629315D01*
X136633783Y-162620211D01*
X136564996Y-162616809D01*
X136103133Y-162616809D01*
X136103133Y-162808784D01*
X136437745Y-162808784D01*
X136576967Y-162812417D01*
X136625935Y-162819347D01*
X136657132Y-162834422D01*
X136680828Y-162857937D01*
X136695699Y-162888725D01*
X136701039Y-162929012D01*
X136694212Y-162975856D01*
X136673989Y-163017123D01*
X136643170Y-163050288D01*
X136606762Y-163070429D01*
X136552469Y-163079960D01*
X136410329Y-163084778D01*
X136103133Y-163084778D01*
X136103133Y-163276753D01*
X136830000Y-163276753D01*
X136830000Y-163098456D01*
G37*
G36*
X136001528Y-163475811D02*
G01*
X135825673Y-163475811D01*
X135825673Y-163667725D01*
X136001528Y-163667725D01*
X136001528Y-163475811D01*
G37*
G36*
X136830000Y-163475811D02*
G01*
X136103133Y-163475811D01*
X136103133Y-163667725D01*
X136830000Y-163667725D01*
X136830000Y-163475811D01*
G37*
D14*
X181295270Y-159024285D02*
X181234794Y-158903333D01*
X181234794Y-158903333D02*
X181113842Y-158782380D01*
X181113842Y-158782380D02*
X180932413Y-158600952D01*
X180932413Y-158600952D02*
X180871937Y-158479999D01*
X180871937Y-158479999D02*
X180871937Y-158359047D01*
X181174318Y-158419523D02*
X181113842Y-158298571D01*
X181113842Y-158298571D02*
X180992889Y-158177618D01*
X180992889Y-158177618D02*
X180750984Y-158117142D01*
X180750984Y-158117142D02*
X180327651Y-158117142D01*
X180327651Y-158117142D02*
X180085746Y-158177618D01*
X180085746Y-158177618D02*
X179964794Y-158298571D01*
X179964794Y-158298571D02*
X179904318Y-158419523D01*
X179904318Y-158419523D02*
X179904318Y-158661428D01*
X179904318Y-158661428D02*
X179964794Y-158782380D01*
X179964794Y-158782380D02*
X180085746Y-158903333D01*
X180085746Y-158903333D02*
X180327651Y-158963809D01*
X180327651Y-158963809D02*
X180750984Y-158963809D01*
X180750984Y-158963809D02*
X180992889Y-158903333D01*
X180992889Y-158903333D02*
X181113842Y-158782380D01*
X181113842Y-158782380D02*
X181174318Y-158661428D01*
X181174318Y-158661428D02*
X181174318Y-158419523D01*
X179904318Y-159387142D02*
X179904318Y-160173333D01*
X179904318Y-160173333D02*
X180388127Y-159749999D01*
X180388127Y-159749999D02*
X180388127Y-159931428D01*
X180388127Y-159931428D02*
X180448603Y-160052380D01*
X180448603Y-160052380D02*
X180509080Y-160112856D01*
X180509080Y-160112856D02*
X180630032Y-160173333D01*
X180630032Y-160173333D02*
X180932413Y-160173333D01*
X180932413Y-160173333D02*
X181053365Y-160112856D01*
X181053365Y-160112856D02*
X181113842Y-160052380D01*
X181113842Y-160052380D02*
X181174318Y-159931428D01*
X181174318Y-159931428D02*
X181174318Y-159568571D01*
X181174318Y-159568571D02*
X181113842Y-159447618D01*
X181113842Y-159447618D02*
X181053365Y-159387142D01*
X179904318Y-160959523D02*
X179904318Y-161080476D01*
X179904318Y-161080476D02*
X179964794Y-161201428D01*
X179964794Y-161201428D02*
X180025270Y-161261904D01*
X180025270Y-161261904D02*
X180146222Y-161322380D01*
X180146222Y-161322380D02*
X180388127Y-161382857D01*
X180388127Y-161382857D02*
X180690508Y-161382857D01*
X180690508Y-161382857D02*
X180932413Y-161322380D01*
X180932413Y-161322380D02*
X181053365Y-161261904D01*
X181053365Y-161261904D02*
X181113842Y-161201428D01*
X181113842Y-161201428D02*
X181174318Y-161080476D01*
X181174318Y-161080476D02*
X181174318Y-160959523D01*
X181174318Y-160959523D02*
X181113842Y-160838571D01*
X181113842Y-160838571D02*
X181053365Y-160778095D01*
X181053365Y-160778095D02*
X180932413Y-160717618D01*
X180932413Y-160717618D02*
X180690508Y-160657142D01*
X180690508Y-160657142D02*
X180388127Y-160657142D01*
X180388127Y-160657142D02*
X180146222Y-160717618D01*
X180146222Y-160717618D02*
X180025270Y-160778095D01*
X180025270Y-160778095D02*
X179964794Y-160838571D01*
X179964794Y-160838571D02*
X179904318Y-160959523D01*
X221945270Y-156254285D02*
X221884794Y-156133333D01*
X221884794Y-156133333D02*
X221763842Y-156012380D01*
X221763842Y-156012380D02*
X221582413Y-155830952D01*
X221582413Y-155830952D02*
X221521937Y-155709999D01*
X221521937Y-155709999D02*
X221521937Y-155589047D01*
X221824318Y-155649523D02*
X221763842Y-155528571D01*
X221763842Y-155528571D02*
X221642889Y-155407618D01*
X221642889Y-155407618D02*
X221400984Y-155347142D01*
X221400984Y-155347142D02*
X220977651Y-155347142D01*
X220977651Y-155347142D02*
X220735746Y-155407618D01*
X220735746Y-155407618D02*
X220614794Y-155528571D01*
X220614794Y-155528571D02*
X220554318Y-155649523D01*
X220554318Y-155649523D02*
X220554318Y-155891428D01*
X220554318Y-155891428D02*
X220614794Y-156012380D01*
X220614794Y-156012380D02*
X220735746Y-156133333D01*
X220735746Y-156133333D02*
X220977651Y-156193809D01*
X220977651Y-156193809D02*
X221400984Y-156193809D01*
X221400984Y-156193809D02*
X221642889Y-156133333D01*
X221642889Y-156133333D02*
X221763842Y-156012380D01*
X221763842Y-156012380D02*
X221824318Y-155891428D01*
X221824318Y-155891428D02*
X221824318Y-155649523D01*
X220554318Y-156617142D02*
X220554318Y-157403333D01*
X220554318Y-157403333D02*
X221038127Y-156979999D01*
X221038127Y-156979999D02*
X221038127Y-157161428D01*
X221038127Y-157161428D02*
X221098603Y-157282380D01*
X221098603Y-157282380D02*
X221159080Y-157342856D01*
X221159080Y-157342856D02*
X221280032Y-157403333D01*
X221280032Y-157403333D02*
X221582413Y-157403333D01*
X221582413Y-157403333D02*
X221703365Y-157342856D01*
X221703365Y-157342856D02*
X221763842Y-157282380D01*
X221763842Y-157282380D02*
X221824318Y-157161428D01*
X221824318Y-157161428D02*
X221824318Y-156798571D01*
X221824318Y-156798571D02*
X221763842Y-156677618D01*
X221763842Y-156677618D02*
X221703365Y-156617142D01*
X220977651Y-158491904D02*
X221824318Y-158491904D01*
X220493842Y-158189523D02*
X221400984Y-157887142D01*
X221400984Y-157887142D02*
X221400984Y-158673333D01*
D15*
X234219047Y-148854819D02*
X234552380Y-148378628D01*
X234790475Y-148854819D02*
X234790475Y-147854819D01*
X234790475Y-147854819D02*
X234409523Y-147854819D01*
X234409523Y-147854819D02*
X234314285Y-147902438D01*
X234314285Y-147902438D02*
X234266666Y-147950057D01*
X234266666Y-147950057D02*
X234219047Y-148045295D01*
X234219047Y-148045295D02*
X234219047Y-148188152D01*
X234219047Y-148188152D02*
X234266666Y-148283390D01*
X234266666Y-148283390D02*
X234314285Y-148331009D01*
X234314285Y-148331009D02*
X234409523Y-148378628D01*
X234409523Y-148378628D02*
X234790475Y-148378628D01*
X233266666Y-148854819D02*
X233838094Y-148854819D01*
X233552380Y-148854819D02*
X233552380Y-147854819D01*
X233552380Y-147854819D02*
X233647618Y-147997676D01*
X233647618Y-147997676D02*
X233742856Y-148092914D01*
X233742856Y-148092914D02*
X233838094Y-148140533D01*
X232314285Y-148854819D02*
X232885713Y-148854819D01*
X232599999Y-148854819D02*
X232599999Y-147854819D01*
X232599999Y-147854819D02*
X232695237Y-147997676D01*
X232695237Y-147997676D02*
X232790475Y-148092914D01*
X232790475Y-148092914D02*
X232885713Y-148140533D01*
X231457142Y-147854819D02*
X231647618Y-147854819D01*
X231647618Y-147854819D02*
X231742856Y-147902438D01*
X231742856Y-147902438D02*
X231790475Y-147950057D01*
X231790475Y-147950057D02*
X231885713Y-148092914D01*
X231885713Y-148092914D02*
X231933332Y-148283390D01*
X231933332Y-148283390D02*
X231933332Y-148664342D01*
X231933332Y-148664342D02*
X231885713Y-148759580D01*
X231885713Y-148759580D02*
X231838094Y-148807200D01*
X231838094Y-148807200D02*
X231742856Y-148854819D01*
X231742856Y-148854819D02*
X231552380Y-148854819D01*
X231552380Y-148854819D02*
X231457142Y-148807200D01*
X231457142Y-148807200D02*
X231409523Y-148759580D01*
X231409523Y-148759580D02*
X231361904Y-148664342D01*
X231361904Y-148664342D02*
X231361904Y-148426247D01*
X231361904Y-148426247D02*
X231409523Y-148331009D01*
X231409523Y-148331009D02*
X231457142Y-148283390D01*
X231457142Y-148283390D02*
X231552380Y-148235771D01*
X231552380Y-148235771D02*
X231742856Y-148235771D01*
X231742856Y-148235771D02*
X231838094Y-148283390D01*
X231838094Y-148283390D02*
X231885713Y-148331009D01*
X231885713Y-148331009D02*
X231933332Y-148426247D01*
X218450057Y-145328571D02*
X218402438Y-145233333D01*
X218402438Y-145233333D02*
X218307200Y-145138095D01*
X218307200Y-145138095D02*
X218164342Y-144995238D01*
X218164342Y-144995238D02*
X218116723Y-144900000D01*
X218116723Y-144900000D02*
X218116723Y-144804762D01*
X218354819Y-144852381D02*
X218307200Y-144757143D01*
X218307200Y-144757143D02*
X218211961Y-144661905D01*
X218211961Y-144661905D02*
X218021485Y-144614286D01*
X218021485Y-144614286D02*
X217688152Y-144614286D01*
X217688152Y-144614286D02*
X217497676Y-144661905D01*
X217497676Y-144661905D02*
X217402438Y-144757143D01*
X217402438Y-144757143D02*
X217354819Y-144852381D01*
X217354819Y-144852381D02*
X217354819Y-145042857D01*
X217354819Y-145042857D02*
X217402438Y-145138095D01*
X217402438Y-145138095D02*
X217497676Y-145233333D01*
X217497676Y-145233333D02*
X217688152Y-145280952D01*
X217688152Y-145280952D02*
X218021485Y-145280952D01*
X218021485Y-145280952D02*
X218211961Y-145233333D01*
X218211961Y-145233333D02*
X218307200Y-145138095D01*
X218307200Y-145138095D02*
X218354819Y-145042857D01*
X218354819Y-145042857D02*
X218354819Y-144852381D01*
X217354819Y-145614286D02*
X217354819Y-146233333D01*
X217354819Y-146233333D02*
X217735771Y-145900000D01*
X217735771Y-145900000D02*
X217735771Y-146042857D01*
X217735771Y-146042857D02*
X217783390Y-146138095D01*
X217783390Y-146138095D02*
X217831009Y-146185714D01*
X217831009Y-146185714D02*
X217926247Y-146233333D01*
X217926247Y-146233333D02*
X218164342Y-146233333D01*
X218164342Y-146233333D02*
X218259580Y-146185714D01*
X218259580Y-146185714D02*
X218307200Y-146138095D01*
X218307200Y-146138095D02*
X218354819Y-146042857D01*
X218354819Y-146042857D02*
X218354819Y-145757143D01*
X218354819Y-145757143D02*
X218307200Y-145661905D01*
X218307200Y-145661905D02*
X218259580Y-145614286D01*
X217354819Y-146566667D02*
X217354819Y-147185714D01*
X217354819Y-147185714D02*
X217735771Y-146852381D01*
X217735771Y-146852381D02*
X217735771Y-146995238D01*
X217735771Y-146995238D02*
X217783390Y-147090476D01*
X217783390Y-147090476D02*
X217831009Y-147138095D01*
X217831009Y-147138095D02*
X217926247Y-147185714D01*
X217926247Y-147185714D02*
X218164342Y-147185714D01*
X218164342Y-147185714D02*
X218259580Y-147138095D01*
X218259580Y-147138095D02*
X218307200Y-147090476D01*
X218307200Y-147090476D02*
X218354819Y-146995238D01*
X218354819Y-146995238D02*
X218354819Y-146709524D01*
X218354819Y-146709524D02*
X218307200Y-146614286D01*
X218307200Y-146614286D02*
X218259580Y-146566667D01*
X173250057Y-148428571D02*
X173202438Y-148333333D01*
X173202438Y-148333333D02*
X173107200Y-148238095D01*
X173107200Y-148238095D02*
X172964342Y-148095238D01*
X172964342Y-148095238D02*
X172916723Y-148000000D01*
X172916723Y-148000000D02*
X172916723Y-147904762D01*
X173154819Y-147952381D02*
X173107200Y-147857143D01*
X173107200Y-147857143D02*
X173011961Y-147761905D01*
X173011961Y-147761905D02*
X172821485Y-147714286D01*
X172821485Y-147714286D02*
X172488152Y-147714286D01*
X172488152Y-147714286D02*
X172297676Y-147761905D01*
X172297676Y-147761905D02*
X172202438Y-147857143D01*
X172202438Y-147857143D02*
X172154819Y-147952381D01*
X172154819Y-147952381D02*
X172154819Y-148142857D01*
X172154819Y-148142857D02*
X172202438Y-148238095D01*
X172202438Y-148238095D02*
X172297676Y-148333333D01*
X172297676Y-148333333D02*
X172488152Y-148380952D01*
X172488152Y-148380952D02*
X172821485Y-148380952D01*
X172821485Y-148380952D02*
X173011961Y-148333333D01*
X173011961Y-148333333D02*
X173107200Y-148238095D01*
X173107200Y-148238095D02*
X173154819Y-148142857D01*
X173154819Y-148142857D02*
X173154819Y-147952381D01*
X172250057Y-148761905D02*
X172202438Y-148809524D01*
X172202438Y-148809524D02*
X172154819Y-148904762D01*
X172154819Y-148904762D02*
X172154819Y-149142857D01*
X172154819Y-149142857D02*
X172202438Y-149238095D01*
X172202438Y-149238095D02*
X172250057Y-149285714D01*
X172250057Y-149285714D02*
X172345295Y-149333333D01*
X172345295Y-149333333D02*
X172440533Y-149333333D01*
X172440533Y-149333333D02*
X172583390Y-149285714D01*
X172583390Y-149285714D02*
X173154819Y-148714286D01*
X173154819Y-148714286D02*
X173154819Y-149333333D01*
X173154819Y-149809524D02*
X173154819Y-150000000D01*
X173154819Y-150000000D02*
X173107200Y-150095238D01*
X173107200Y-150095238D02*
X173059580Y-150142857D01*
X173059580Y-150142857D02*
X172916723Y-150238095D01*
X172916723Y-150238095D02*
X172726247Y-150285714D01*
X172726247Y-150285714D02*
X172345295Y-150285714D01*
X172345295Y-150285714D02*
X172250057Y-150238095D01*
X172250057Y-150238095D02*
X172202438Y-150190476D01*
X172202438Y-150190476D02*
X172154819Y-150095238D01*
X172154819Y-150095238D02*
X172154819Y-149904762D01*
X172154819Y-149904762D02*
X172202438Y-149809524D01*
X172202438Y-149809524D02*
X172250057Y-149761905D01*
X172250057Y-149761905D02*
X172345295Y-149714286D01*
X172345295Y-149714286D02*
X172583390Y-149714286D01*
X172583390Y-149714286D02*
X172678628Y-149761905D01*
X172678628Y-149761905D02*
X172726247Y-149809524D01*
X172726247Y-149809524D02*
X172773866Y-149904762D01*
X172773866Y-149904762D02*
X172773866Y-150095238D01*
X172773866Y-150095238D02*
X172726247Y-150190476D01*
X172726247Y-150190476D02*
X172678628Y-150238095D01*
X172678628Y-150238095D02*
X172583390Y-150285714D01*
X180919047Y-151554819D02*
X181252380Y-151078628D01*
X181490475Y-151554819D02*
X181490475Y-150554819D01*
X181490475Y-150554819D02*
X181109523Y-150554819D01*
X181109523Y-150554819D02*
X181014285Y-150602438D01*
X181014285Y-150602438D02*
X180966666Y-150650057D01*
X180966666Y-150650057D02*
X180919047Y-150745295D01*
X180919047Y-150745295D02*
X180919047Y-150888152D01*
X180919047Y-150888152D02*
X180966666Y-150983390D01*
X180966666Y-150983390D02*
X181014285Y-151031009D01*
X181014285Y-151031009D02*
X181109523Y-151078628D01*
X181109523Y-151078628D02*
X181490475Y-151078628D01*
X179966666Y-151554819D02*
X180538094Y-151554819D01*
X180252380Y-151554819D02*
X180252380Y-150554819D01*
X180252380Y-150554819D02*
X180347618Y-150697676D01*
X180347618Y-150697676D02*
X180442856Y-150792914D01*
X180442856Y-150792914D02*
X180538094Y-150840533D01*
X179014285Y-151554819D02*
X179585713Y-151554819D01*
X179299999Y-151554819D02*
X179299999Y-150554819D01*
X179299999Y-150554819D02*
X179395237Y-150697676D01*
X179395237Y-150697676D02*
X179490475Y-150792914D01*
X179490475Y-150792914D02*
X179585713Y-150840533D01*
X178157142Y-150888152D02*
X178157142Y-151554819D01*
X178395237Y-150507200D02*
X178633332Y-151221485D01*
X178633332Y-151221485D02*
X178014285Y-151221485D01*
X229619047Y-139954819D02*
X229952380Y-139478628D01*
X230190475Y-139954819D02*
X230190475Y-138954819D01*
X230190475Y-138954819D02*
X229809523Y-138954819D01*
X229809523Y-138954819D02*
X229714285Y-139002438D01*
X229714285Y-139002438D02*
X229666666Y-139050057D01*
X229666666Y-139050057D02*
X229619047Y-139145295D01*
X229619047Y-139145295D02*
X229619047Y-139288152D01*
X229619047Y-139288152D02*
X229666666Y-139383390D01*
X229666666Y-139383390D02*
X229714285Y-139431009D01*
X229714285Y-139431009D02*
X229809523Y-139478628D01*
X229809523Y-139478628D02*
X230190475Y-139478628D01*
X228666666Y-139954819D02*
X229238094Y-139954819D01*
X228952380Y-139954819D02*
X228952380Y-138954819D01*
X228952380Y-138954819D02*
X229047618Y-139097676D01*
X229047618Y-139097676D02*
X229142856Y-139192914D01*
X229142856Y-139192914D02*
X229238094Y-139240533D01*
X227714285Y-139954819D02*
X228285713Y-139954819D01*
X227999999Y-139954819D02*
X227999999Y-138954819D01*
X227999999Y-138954819D02*
X228095237Y-139097676D01*
X228095237Y-139097676D02*
X228190475Y-139192914D01*
X228190475Y-139192914D02*
X228285713Y-139240533D01*
X226809523Y-138954819D02*
X227285713Y-138954819D01*
X227285713Y-138954819D02*
X227333332Y-139431009D01*
X227333332Y-139431009D02*
X227285713Y-139383390D01*
X227285713Y-139383390D02*
X227190475Y-139335771D01*
X227190475Y-139335771D02*
X226952380Y-139335771D01*
X226952380Y-139335771D02*
X226857142Y-139383390D01*
X226857142Y-139383390D02*
X226809523Y-139431009D01*
X226809523Y-139431009D02*
X226761904Y-139526247D01*
X226761904Y-139526247D02*
X226761904Y-139764342D01*
X226761904Y-139764342D02*
X226809523Y-139859580D01*
X226809523Y-139859580D02*
X226857142Y-139907200D01*
X226857142Y-139907200D02*
X226952380Y-139954819D01*
X226952380Y-139954819D02*
X227190475Y-139954819D01*
X227190475Y-139954819D02*
X227285713Y-139907200D01*
X227285713Y-139907200D02*
X227333332Y-139859580D01*
D14*
X230195270Y-156254285D02*
X230134794Y-156133333D01*
X230134794Y-156133333D02*
X230013842Y-156012380D01*
X230013842Y-156012380D02*
X229832413Y-155830952D01*
X229832413Y-155830952D02*
X229771937Y-155709999D01*
X229771937Y-155709999D02*
X229771937Y-155589047D01*
X230074318Y-155649523D02*
X230013842Y-155528571D01*
X230013842Y-155528571D02*
X229892889Y-155407618D01*
X229892889Y-155407618D02*
X229650984Y-155347142D01*
X229650984Y-155347142D02*
X229227651Y-155347142D01*
X229227651Y-155347142D02*
X228985746Y-155407618D01*
X228985746Y-155407618D02*
X228864794Y-155528571D01*
X228864794Y-155528571D02*
X228804318Y-155649523D01*
X228804318Y-155649523D02*
X228804318Y-155891428D01*
X228804318Y-155891428D02*
X228864794Y-156012380D01*
X228864794Y-156012380D02*
X228985746Y-156133333D01*
X228985746Y-156133333D02*
X229227651Y-156193809D01*
X229227651Y-156193809D02*
X229650984Y-156193809D01*
X229650984Y-156193809D02*
X229892889Y-156133333D01*
X229892889Y-156133333D02*
X230013842Y-156012380D01*
X230013842Y-156012380D02*
X230074318Y-155891428D01*
X230074318Y-155891428D02*
X230074318Y-155649523D01*
X228804318Y-156617142D02*
X228804318Y-157403333D01*
X228804318Y-157403333D02*
X229288127Y-156979999D01*
X229288127Y-156979999D02*
X229288127Y-157161428D01*
X229288127Y-157161428D02*
X229348603Y-157282380D01*
X229348603Y-157282380D02*
X229409080Y-157342856D01*
X229409080Y-157342856D02*
X229530032Y-157403333D01*
X229530032Y-157403333D02*
X229832413Y-157403333D01*
X229832413Y-157403333D02*
X229953365Y-157342856D01*
X229953365Y-157342856D02*
X230013842Y-157282380D01*
X230013842Y-157282380D02*
X230074318Y-157161428D01*
X230074318Y-157161428D02*
X230074318Y-156798571D01*
X230074318Y-156798571D02*
X230013842Y-156677618D01*
X230013842Y-156677618D02*
X229953365Y-156617142D01*
X228925270Y-157887142D02*
X228864794Y-157947618D01*
X228864794Y-157947618D02*
X228804318Y-158068571D01*
X228804318Y-158068571D02*
X228804318Y-158370952D01*
X228804318Y-158370952D02*
X228864794Y-158491904D01*
X228864794Y-158491904D02*
X228925270Y-158552380D01*
X228925270Y-158552380D02*
X229046222Y-158612857D01*
X229046222Y-158612857D02*
X229167175Y-158612857D01*
X229167175Y-158612857D02*
X229348603Y-158552380D01*
X229348603Y-158552380D02*
X230074318Y-157826666D01*
X230074318Y-157826666D02*
X230074318Y-158612857D01*
D15*
X260554819Y-117630952D02*
X260078628Y-117297619D01*
X260554819Y-117059524D02*
X259554819Y-117059524D01*
X259554819Y-117059524D02*
X259554819Y-117440476D01*
X259554819Y-117440476D02*
X259602438Y-117535714D01*
X259602438Y-117535714D02*
X259650057Y-117583333D01*
X259650057Y-117583333D02*
X259745295Y-117630952D01*
X259745295Y-117630952D02*
X259888152Y-117630952D01*
X259888152Y-117630952D02*
X259983390Y-117583333D01*
X259983390Y-117583333D02*
X260031009Y-117535714D01*
X260031009Y-117535714D02*
X260078628Y-117440476D01*
X260078628Y-117440476D02*
X260078628Y-117059524D01*
X260554819Y-118583333D02*
X260554819Y-118011905D01*
X260554819Y-118297619D02*
X259554819Y-118297619D01*
X259554819Y-118297619D02*
X259697676Y-118202381D01*
X259697676Y-118202381D02*
X259792914Y-118107143D01*
X259792914Y-118107143D02*
X259840533Y-118011905D01*
X259554819Y-119202381D02*
X259554819Y-119297619D01*
X259554819Y-119297619D02*
X259602438Y-119392857D01*
X259602438Y-119392857D02*
X259650057Y-119440476D01*
X259650057Y-119440476D02*
X259745295Y-119488095D01*
X259745295Y-119488095D02*
X259935771Y-119535714D01*
X259935771Y-119535714D02*
X260173866Y-119535714D01*
X260173866Y-119535714D02*
X260364342Y-119488095D01*
X260364342Y-119488095D02*
X260459580Y-119440476D01*
X260459580Y-119440476D02*
X260507200Y-119392857D01*
X260507200Y-119392857D02*
X260554819Y-119297619D01*
X260554819Y-119297619D02*
X260554819Y-119202381D01*
X260554819Y-119202381D02*
X260507200Y-119107143D01*
X260507200Y-119107143D02*
X260459580Y-119059524D01*
X260459580Y-119059524D02*
X260364342Y-119011905D01*
X260364342Y-119011905D02*
X260173866Y-118964286D01*
X260173866Y-118964286D02*
X259935771Y-118964286D01*
X259935771Y-118964286D02*
X259745295Y-119011905D01*
X259745295Y-119011905D02*
X259650057Y-119059524D01*
X259650057Y-119059524D02*
X259602438Y-119107143D01*
X259602438Y-119107143D02*
X259554819Y-119202381D01*
X259650057Y-119916667D02*
X259602438Y-119964286D01*
X259602438Y-119964286D02*
X259554819Y-120059524D01*
X259554819Y-120059524D02*
X259554819Y-120297619D01*
X259554819Y-120297619D02*
X259602438Y-120392857D01*
X259602438Y-120392857D02*
X259650057Y-120440476D01*
X259650057Y-120440476D02*
X259745295Y-120488095D01*
X259745295Y-120488095D02*
X259840533Y-120488095D01*
X259840533Y-120488095D02*
X259983390Y-120440476D01*
X259983390Y-120440476D02*
X260554819Y-119869048D01*
X260554819Y-119869048D02*
X260554819Y-120488095D01*
X217929047Y-141724819D02*
X218262380Y-141248628D01*
X218500475Y-141724819D02*
X218500475Y-140724819D01*
X218500475Y-140724819D02*
X218119523Y-140724819D01*
X218119523Y-140724819D02*
X218024285Y-140772438D01*
X218024285Y-140772438D02*
X217976666Y-140820057D01*
X217976666Y-140820057D02*
X217929047Y-140915295D01*
X217929047Y-140915295D02*
X217929047Y-141058152D01*
X217929047Y-141058152D02*
X217976666Y-141153390D01*
X217976666Y-141153390D02*
X218024285Y-141201009D01*
X218024285Y-141201009D02*
X218119523Y-141248628D01*
X218119523Y-141248628D02*
X218500475Y-141248628D01*
X216976666Y-141724819D02*
X217548094Y-141724819D01*
X217262380Y-141724819D02*
X217262380Y-140724819D01*
X217262380Y-140724819D02*
X217357618Y-140867676D01*
X217357618Y-140867676D02*
X217452856Y-140962914D01*
X217452856Y-140962914D02*
X217548094Y-141010533D01*
X216024285Y-141724819D02*
X216595713Y-141724819D01*
X216309999Y-141724819D02*
X216309999Y-140724819D01*
X216309999Y-140724819D02*
X216405237Y-140867676D01*
X216405237Y-140867676D02*
X216500475Y-140962914D01*
X216500475Y-140962914D02*
X216595713Y-141010533D01*
X215452856Y-141153390D02*
X215548094Y-141105771D01*
X215548094Y-141105771D02*
X215595713Y-141058152D01*
X215595713Y-141058152D02*
X215643332Y-140962914D01*
X215643332Y-140962914D02*
X215643332Y-140915295D01*
X215643332Y-140915295D02*
X215595713Y-140820057D01*
X215595713Y-140820057D02*
X215548094Y-140772438D01*
X215548094Y-140772438D02*
X215452856Y-140724819D01*
X215452856Y-140724819D02*
X215262380Y-140724819D01*
X215262380Y-140724819D02*
X215167142Y-140772438D01*
X215167142Y-140772438D02*
X215119523Y-140820057D01*
X215119523Y-140820057D02*
X215071904Y-140915295D01*
X215071904Y-140915295D02*
X215071904Y-140962914D01*
X215071904Y-140962914D02*
X215119523Y-141058152D01*
X215119523Y-141058152D02*
X215167142Y-141105771D01*
X215167142Y-141105771D02*
X215262380Y-141153390D01*
X215262380Y-141153390D02*
X215452856Y-141153390D01*
X215452856Y-141153390D02*
X215548094Y-141201009D01*
X215548094Y-141201009D02*
X215595713Y-141248628D01*
X215595713Y-141248628D02*
X215643332Y-141343866D01*
X215643332Y-141343866D02*
X215643332Y-141534342D01*
X215643332Y-141534342D02*
X215595713Y-141629580D01*
X215595713Y-141629580D02*
X215548094Y-141677200D01*
X215548094Y-141677200D02*
X215452856Y-141724819D01*
X215452856Y-141724819D02*
X215262380Y-141724819D01*
X215262380Y-141724819D02*
X215167142Y-141677200D01*
X215167142Y-141677200D02*
X215119523Y-141629580D01*
X215119523Y-141629580D02*
X215071904Y-141534342D01*
X215071904Y-141534342D02*
X215071904Y-141343866D01*
X215071904Y-141343866D02*
X215119523Y-141248628D01*
X215119523Y-141248628D02*
X215167142Y-141201009D01*
X215167142Y-141201009D02*
X215262380Y-141153390D01*
X219009047Y-151834819D02*
X219342380Y-151358628D01*
X219580475Y-151834819D02*
X219580475Y-150834819D01*
X219580475Y-150834819D02*
X219199523Y-150834819D01*
X219199523Y-150834819D02*
X219104285Y-150882438D01*
X219104285Y-150882438D02*
X219056666Y-150930057D01*
X219056666Y-150930057D02*
X219009047Y-151025295D01*
X219009047Y-151025295D02*
X219009047Y-151168152D01*
X219009047Y-151168152D02*
X219056666Y-151263390D01*
X219056666Y-151263390D02*
X219104285Y-151311009D01*
X219104285Y-151311009D02*
X219199523Y-151358628D01*
X219199523Y-151358628D02*
X219580475Y-151358628D01*
X218056666Y-151834819D02*
X218628094Y-151834819D01*
X218342380Y-151834819D02*
X218342380Y-150834819D01*
X218342380Y-150834819D02*
X218437618Y-150977676D01*
X218437618Y-150977676D02*
X218532856Y-151072914D01*
X218532856Y-151072914D02*
X218628094Y-151120533D01*
X217104285Y-151834819D02*
X217675713Y-151834819D01*
X217389999Y-151834819D02*
X217389999Y-150834819D01*
X217389999Y-150834819D02*
X217485237Y-150977676D01*
X217485237Y-150977676D02*
X217580475Y-151072914D01*
X217580475Y-151072914D02*
X217675713Y-151120533D01*
X216628094Y-151834819D02*
X216437618Y-151834819D01*
X216437618Y-151834819D02*
X216342380Y-151787200D01*
X216342380Y-151787200D02*
X216294761Y-151739580D01*
X216294761Y-151739580D02*
X216199523Y-151596723D01*
X216199523Y-151596723D02*
X216151904Y-151406247D01*
X216151904Y-151406247D02*
X216151904Y-151025295D01*
X216151904Y-151025295D02*
X216199523Y-150930057D01*
X216199523Y-150930057D02*
X216247142Y-150882438D01*
X216247142Y-150882438D02*
X216342380Y-150834819D01*
X216342380Y-150834819D02*
X216532856Y-150834819D01*
X216532856Y-150834819D02*
X216628094Y-150882438D01*
X216628094Y-150882438D02*
X216675713Y-150930057D01*
X216675713Y-150930057D02*
X216723332Y-151025295D01*
X216723332Y-151025295D02*
X216723332Y-151263390D01*
X216723332Y-151263390D02*
X216675713Y-151358628D01*
X216675713Y-151358628D02*
X216628094Y-151406247D01*
X216628094Y-151406247D02*
X216532856Y-151453866D01*
X216532856Y-151453866D02*
X216342380Y-151453866D01*
X216342380Y-151453866D02*
X216247142Y-151406247D01*
X216247142Y-151406247D02*
X216199523Y-151358628D01*
X216199523Y-151358628D02*
X216151904Y-151263390D01*
X164950057Y-148528571D02*
X164902438Y-148433333D01*
X164902438Y-148433333D02*
X164807200Y-148338095D01*
X164807200Y-148338095D02*
X164664342Y-148195238D01*
X164664342Y-148195238D02*
X164616723Y-148100000D01*
X164616723Y-148100000D02*
X164616723Y-148004762D01*
X164854819Y-148052381D02*
X164807200Y-147957143D01*
X164807200Y-147957143D02*
X164711961Y-147861905D01*
X164711961Y-147861905D02*
X164521485Y-147814286D01*
X164521485Y-147814286D02*
X164188152Y-147814286D01*
X164188152Y-147814286D02*
X163997676Y-147861905D01*
X163997676Y-147861905D02*
X163902438Y-147957143D01*
X163902438Y-147957143D02*
X163854819Y-148052381D01*
X163854819Y-148052381D02*
X163854819Y-148242857D01*
X163854819Y-148242857D02*
X163902438Y-148338095D01*
X163902438Y-148338095D02*
X163997676Y-148433333D01*
X163997676Y-148433333D02*
X164188152Y-148480952D01*
X164188152Y-148480952D02*
X164521485Y-148480952D01*
X164521485Y-148480952D02*
X164711961Y-148433333D01*
X164711961Y-148433333D02*
X164807200Y-148338095D01*
X164807200Y-148338095D02*
X164854819Y-148242857D01*
X164854819Y-148242857D02*
X164854819Y-148052381D01*
X163950057Y-148861905D02*
X163902438Y-148909524D01*
X163902438Y-148909524D02*
X163854819Y-149004762D01*
X163854819Y-149004762D02*
X163854819Y-149242857D01*
X163854819Y-149242857D02*
X163902438Y-149338095D01*
X163902438Y-149338095D02*
X163950057Y-149385714D01*
X163950057Y-149385714D02*
X164045295Y-149433333D01*
X164045295Y-149433333D02*
X164140533Y-149433333D01*
X164140533Y-149433333D02*
X164283390Y-149385714D01*
X164283390Y-149385714D02*
X164854819Y-148814286D01*
X164854819Y-148814286D02*
X164854819Y-149433333D01*
X164283390Y-150004762D02*
X164235771Y-149909524D01*
X164235771Y-149909524D02*
X164188152Y-149861905D01*
X164188152Y-149861905D02*
X164092914Y-149814286D01*
X164092914Y-149814286D02*
X164045295Y-149814286D01*
X164045295Y-149814286D02*
X163950057Y-149861905D01*
X163950057Y-149861905D02*
X163902438Y-149909524D01*
X163902438Y-149909524D02*
X163854819Y-150004762D01*
X163854819Y-150004762D02*
X163854819Y-150195238D01*
X163854819Y-150195238D02*
X163902438Y-150290476D01*
X163902438Y-150290476D02*
X163950057Y-150338095D01*
X163950057Y-150338095D02*
X164045295Y-150385714D01*
X164045295Y-150385714D02*
X164092914Y-150385714D01*
X164092914Y-150385714D02*
X164188152Y-150338095D01*
X164188152Y-150338095D02*
X164235771Y-150290476D01*
X164235771Y-150290476D02*
X164283390Y-150195238D01*
X164283390Y-150195238D02*
X164283390Y-150004762D01*
X164283390Y-150004762D02*
X164331009Y-149909524D01*
X164331009Y-149909524D02*
X164378628Y-149861905D01*
X164378628Y-149861905D02*
X164473866Y-149814286D01*
X164473866Y-149814286D02*
X164664342Y-149814286D01*
X164664342Y-149814286D02*
X164759580Y-149861905D01*
X164759580Y-149861905D02*
X164807200Y-149909524D01*
X164807200Y-149909524D02*
X164854819Y-150004762D01*
X164854819Y-150004762D02*
X164854819Y-150195238D01*
X164854819Y-150195238D02*
X164807200Y-150290476D01*
X164807200Y-150290476D02*
X164759580Y-150338095D01*
X164759580Y-150338095D02*
X164664342Y-150385714D01*
X164664342Y-150385714D02*
X164473866Y-150385714D01*
X164473866Y-150385714D02*
X164378628Y-150338095D01*
X164378628Y-150338095D02*
X164331009Y-150290476D01*
X164331009Y-150290476D02*
X164283390Y-150195238D01*
X233042857Y-143059580D02*
X233090476Y-143107200D01*
X233090476Y-143107200D02*
X233233333Y-143154819D01*
X233233333Y-143154819D02*
X233328571Y-143154819D01*
X233328571Y-143154819D02*
X233471428Y-143107200D01*
X233471428Y-143107200D02*
X233566666Y-143011961D01*
X233566666Y-143011961D02*
X233614285Y-142916723D01*
X233614285Y-142916723D02*
X233661904Y-142726247D01*
X233661904Y-142726247D02*
X233661904Y-142583390D01*
X233661904Y-142583390D02*
X233614285Y-142392914D01*
X233614285Y-142392914D02*
X233566666Y-142297676D01*
X233566666Y-142297676D02*
X233471428Y-142202438D01*
X233471428Y-142202438D02*
X233328571Y-142154819D01*
X233328571Y-142154819D02*
X233233333Y-142154819D01*
X233233333Y-142154819D02*
X233090476Y-142202438D01*
X233090476Y-142202438D02*
X233042857Y-142250057D01*
X232709523Y-142154819D02*
X232090476Y-142154819D01*
X232090476Y-142154819D02*
X232423809Y-142535771D01*
X232423809Y-142535771D02*
X232280952Y-142535771D01*
X232280952Y-142535771D02*
X232185714Y-142583390D01*
X232185714Y-142583390D02*
X232138095Y-142631009D01*
X232138095Y-142631009D02*
X232090476Y-142726247D01*
X232090476Y-142726247D02*
X232090476Y-142964342D01*
X232090476Y-142964342D02*
X232138095Y-143059580D01*
X232138095Y-143059580D02*
X232185714Y-143107200D01*
X232185714Y-143107200D02*
X232280952Y-143154819D01*
X232280952Y-143154819D02*
X232566666Y-143154819D01*
X232566666Y-143154819D02*
X232661904Y-143107200D01*
X232661904Y-143107200D02*
X232709523Y-143059580D01*
X231233333Y-142154819D02*
X231423809Y-142154819D01*
X231423809Y-142154819D02*
X231519047Y-142202438D01*
X231519047Y-142202438D02*
X231566666Y-142250057D01*
X231566666Y-142250057D02*
X231661904Y-142392914D01*
X231661904Y-142392914D02*
X231709523Y-142583390D01*
X231709523Y-142583390D02*
X231709523Y-142964342D01*
X231709523Y-142964342D02*
X231661904Y-143059580D01*
X231661904Y-143059580D02*
X231614285Y-143107200D01*
X231614285Y-143107200D02*
X231519047Y-143154819D01*
X231519047Y-143154819D02*
X231328571Y-143154819D01*
X231328571Y-143154819D02*
X231233333Y-143107200D01*
X231233333Y-143107200D02*
X231185714Y-143059580D01*
X231185714Y-143059580D02*
X231138095Y-142964342D01*
X231138095Y-142964342D02*
X231138095Y-142726247D01*
X231138095Y-142726247D02*
X231185714Y-142631009D01*
X231185714Y-142631009D02*
X231233333Y-142583390D01*
X231233333Y-142583390D02*
X231328571Y-142535771D01*
X231328571Y-142535771D02*
X231519047Y-142535771D01*
X231519047Y-142535771D02*
X231614285Y-142583390D01*
X231614285Y-142583390D02*
X231661904Y-142631009D01*
X231661904Y-142631009D02*
X231709523Y-142726247D01*
X135554819Y-174357142D02*
X135078628Y-174023809D01*
X135554819Y-173785714D02*
X134554819Y-173785714D01*
X134554819Y-173785714D02*
X134554819Y-174166666D01*
X134554819Y-174166666D02*
X134602438Y-174261904D01*
X134602438Y-174261904D02*
X134650057Y-174309523D01*
X134650057Y-174309523D02*
X134745295Y-174357142D01*
X134745295Y-174357142D02*
X134888152Y-174357142D01*
X134888152Y-174357142D02*
X134983390Y-174309523D01*
X134983390Y-174309523D02*
X135031009Y-174261904D01*
X135031009Y-174261904D02*
X135078628Y-174166666D01*
X135078628Y-174166666D02*
X135078628Y-173785714D01*
X134554819Y-174690476D02*
X134554819Y-175309523D01*
X134554819Y-175309523D02*
X134935771Y-174976190D01*
X134935771Y-174976190D02*
X134935771Y-175119047D01*
X134935771Y-175119047D02*
X134983390Y-175214285D01*
X134983390Y-175214285D02*
X135031009Y-175261904D01*
X135031009Y-175261904D02*
X135126247Y-175309523D01*
X135126247Y-175309523D02*
X135364342Y-175309523D01*
X135364342Y-175309523D02*
X135459580Y-175261904D01*
X135459580Y-175261904D02*
X135507200Y-175214285D01*
X135507200Y-175214285D02*
X135554819Y-175119047D01*
X135554819Y-175119047D02*
X135554819Y-174833333D01*
X135554819Y-174833333D02*
X135507200Y-174738095D01*
X135507200Y-174738095D02*
X135459580Y-174690476D01*
X134650057Y-175690476D02*
X134602438Y-175738095D01*
X134602438Y-175738095D02*
X134554819Y-175833333D01*
X134554819Y-175833333D02*
X134554819Y-176071428D01*
X134554819Y-176071428D02*
X134602438Y-176166666D01*
X134602438Y-176166666D02*
X134650057Y-176214285D01*
X134650057Y-176214285D02*
X134745295Y-176261904D01*
X134745295Y-176261904D02*
X134840533Y-176261904D01*
X134840533Y-176261904D02*
X134983390Y-176214285D01*
X134983390Y-176214285D02*
X135554819Y-175642857D01*
X135554819Y-175642857D02*
X135554819Y-176261904D01*
X297954819Y-116880952D02*
X297478628Y-116547619D01*
X297954819Y-116309524D02*
X296954819Y-116309524D01*
X296954819Y-116309524D02*
X296954819Y-116690476D01*
X296954819Y-116690476D02*
X297002438Y-116785714D01*
X297002438Y-116785714D02*
X297050057Y-116833333D01*
X297050057Y-116833333D02*
X297145295Y-116880952D01*
X297145295Y-116880952D02*
X297288152Y-116880952D01*
X297288152Y-116880952D02*
X297383390Y-116833333D01*
X297383390Y-116833333D02*
X297431009Y-116785714D01*
X297431009Y-116785714D02*
X297478628Y-116690476D01*
X297478628Y-116690476D02*
X297478628Y-116309524D01*
X297954819Y-117833333D02*
X297954819Y-117261905D01*
X297954819Y-117547619D02*
X296954819Y-117547619D01*
X296954819Y-117547619D02*
X297097676Y-117452381D01*
X297097676Y-117452381D02*
X297192914Y-117357143D01*
X297192914Y-117357143D02*
X297240533Y-117261905D01*
X296954819Y-118452381D02*
X296954819Y-118547619D01*
X296954819Y-118547619D02*
X297002438Y-118642857D01*
X297002438Y-118642857D02*
X297050057Y-118690476D01*
X297050057Y-118690476D02*
X297145295Y-118738095D01*
X297145295Y-118738095D02*
X297335771Y-118785714D01*
X297335771Y-118785714D02*
X297573866Y-118785714D01*
X297573866Y-118785714D02*
X297764342Y-118738095D01*
X297764342Y-118738095D02*
X297859580Y-118690476D01*
X297859580Y-118690476D02*
X297907200Y-118642857D01*
X297907200Y-118642857D02*
X297954819Y-118547619D01*
X297954819Y-118547619D02*
X297954819Y-118452381D01*
X297954819Y-118452381D02*
X297907200Y-118357143D01*
X297907200Y-118357143D02*
X297859580Y-118309524D01*
X297859580Y-118309524D02*
X297764342Y-118261905D01*
X297764342Y-118261905D02*
X297573866Y-118214286D01*
X297573866Y-118214286D02*
X297335771Y-118214286D01*
X297335771Y-118214286D02*
X297145295Y-118261905D01*
X297145295Y-118261905D02*
X297050057Y-118309524D01*
X297050057Y-118309524D02*
X297002438Y-118357143D01*
X297002438Y-118357143D02*
X296954819Y-118452381D01*
X296954819Y-119119048D02*
X296954819Y-119738095D01*
X296954819Y-119738095D02*
X297335771Y-119404762D01*
X297335771Y-119404762D02*
X297335771Y-119547619D01*
X297335771Y-119547619D02*
X297383390Y-119642857D01*
X297383390Y-119642857D02*
X297431009Y-119690476D01*
X297431009Y-119690476D02*
X297526247Y-119738095D01*
X297526247Y-119738095D02*
X297764342Y-119738095D01*
X297764342Y-119738095D02*
X297859580Y-119690476D01*
X297859580Y-119690476D02*
X297907200Y-119642857D01*
X297907200Y-119642857D02*
X297954819Y-119547619D01*
X297954819Y-119547619D02*
X297954819Y-119261905D01*
X297954819Y-119261905D02*
X297907200Y-119166667D01*
X297907200Y-119166667D02*
X297859580Y-119119048D01*
X181019047Y-154354819D02*
X181352380Y-153878628D01*
X181590475Y-154354819D02*
X181590475Y-153354819D01*
X181590475Y-153354819D02*
X181209523Y-153354819D01*
X181209523Y-153354819D02*
X181114285Y-153402438D01*
X181114285Y-153402438D02*
X181066666Y-153450057D01*
X181066666Y-153450057D02*
X181019047Y-153545295D01*
X181019047Y-153545295D02*
X181019047Y-153688152D01*
X181019047Y-153688152D02*
X181066666Y-153783390D01*
X181066666Y-153783390D02*
X181114285Y-153831009D01*
X181114285Y-153831009D02*
X181209523Y-153878628D01*
X181209523Y-153878628D02*
X181590475Y-153878628D01*
X180066666Y-154354819D02*
X180638094Y-154354819D01*
X180352380Y-154354819D02*
X180352380Y-153354819D01*
X180352380Y-153354819D02*
X180447618Y-153497676D01*
X180447618Y-153497676D02*
X180542856Y-153592914D01*
X180542856Y-153592914D02*
X180638094Y-153640533D01*
X179114285Y-154354819D02*
X179685713Y-154354819D01*
X179399999Y-154354819D02*
X179399999Y-153354819D01*
X179399999Y-153354819D02*
X179495237Y-153497676D01*
X179495237Y-153497676D02*
X179590475Y-153592914D01*
X179590475Y-153592914D02*
X179685713Y-153640533D01*
X178780951Y-153354819D02*
X178161904Y-153354819D01*
X178161904Y-153354819D02*
X178495237Y-153735771D01*
X178495237Y-153735771D02*
X178352380Y-153735771D01*
X178352380Y-153735771D02*
X178257142Y-153783390D01*
X178257142Y-153783390D02*
X178209523Y-153831009D01*
X178209523Y-153831009D02*
X178161904Y-153926247D01*
X178161904Y-153926247D02*
X178161904Y-154164342D01*
X178161904Y-154164342D02*
X178209523Y-154259580D01*
X178209523Y-154259580D02*
X178257142Y-154307200D01*
X178257142Y-154307200D02*
X178352380Y-154354819D01*
X178352380Y-154354819D02*
X178638094Y-154354819D01*
X178638094Y-154354819D02*
X178733332Y-154307200D01*
X178733332Y-154307200D02*
X178780951Y-154259580D01*
X292054819Y-116880952D02*
X291578628Y-116547619D01*
X292054819Y-116309524D02*
X291054819Y-116309524D01*
X291054819Y-116309524D02*
X291054819Y-116690476D01*
X291054819Y-116690476D02*
X291102438Y-116785714D01*
X291102438Y-116785714D02*
X291150057Y-116833333D01*
X291150057Y-116833333D02*
X291245295Y-116880952D01*
X291245295Y-116880952D02*
X291388152Y-116880952D01*
X291388152Y-116880952D02*
X291483390Y-116833333D01*
X291483390Y-116833333D02*
X291531009Y-116785714D01*
X291531009Y-116785714D02*
X291578628Y-116690476D01*
X291578628Y-116690476D02*
X291578628Y-116309524D01*
X292054819Y-117833333D02*
X292054819Y-117261905D01*
X292054819Y-117547619D02*
X291054819Y-117547619D01*
X291054819Y-117547619D02*
X291197676Y-117452381D01*
X291197676Y-117452381D02*
X291292914Y-117357143D01*
X291292914Y-117357143D02*
X291340533Y-117261905D01*
X291054819Y-118452381D02*
X291054819Y-118547619D01*
X291054819Y-118547619D02*
X291102438Y-118642857D01*
X291102438Y-118642857D02*
X291150057Y-118690476D01*
X291150057Y-118690476D02*
X291245295Y-118738095D01*
X291245295Y-118738095D02*
X291435771Y-118785714D01*
X291435771Y-118785714D02*
X291673866Y-118785714D01*
X291673866Y-118785714D02*
X291864342Y-118738095D01*
X291864342Y-118738095D02*
X291959580Y-118690476D01*
X291959580Y-118690476D02*
X292007200Y-118642857D01*
X292007200Y-118642857D02*
X292054819Y-118547619D01*
X292054819Y-118547619D02*
X292054819Y-118452381D01*
X292054819Y-118452381D02*
X292007200Y-118357143D01*
X292007200Y-118357143D02*
X291959580Y-118309524D01*
X291959580Y-118309524D02*
X291864342Y-118261905D01*
X291864342Y-118261905D02*
X291673866Y-118214286D01*
X291673866Y-118214286D02*
X291435771Y-118214286D01*
X291435771Y-118214286D02*
X291245295Y-118261905D01*
X291245295Y-118261905D02*
X291150057Y-118309524D01*
X291150057Y-118309524D02*
X291102438Y-118357143D01*
X291102438Y-118357143D02*
X291054819Y-118452381D01*
X291388152Y-119642857D02*
X292054819Y-119642857D01*
X291007200Y-119404762D02*
X291721485Y-119166667D01*
X291721485Y-119166667D02*
X291721485Y-119785714D01*
X176619047Y-142754819D02*
X176952380Y-142278628D01*
X177190475Y-142754819D02*
X177190475Y-141754819D01*
X177190475Y-141754819D02*
X176809523Y-141754819D01*
X176809523Y-141754819D02*
X176714285Y-141802438D01*
X176714285Y-141802438D02*
X176666666Y-141850057D01*
X176666666Y-141850057D02*
X176619047Y-141945295D01*
X176619047Y-141945295D02*
X176619047Y-142088152D01*
X176619047Y-142088152D02*
X176666666Y-142183390D01*
X176666666Y-142183390D02*
X176714285Y-142231009D01*
X176714285Y-142231009D02*
X176809523Y-142278628D01*
X176809523Y-142278628D02*
X177190475Y-142278628D01*
X175666666Y-142754819D02*
X176238094Y-142754819D01*
X175952380Y-142754819D02*
X175952380Y-141754819D01*
X175952380Y-141754819D02*
X176047618Y-141897676D01*
X176047618Y-141897676D02*
X176142856Y-141992914D01*
X176142856Y-141992914D02*
X176238094Y-142040533D01*
X174714285Y-142754819D02*
X175285713Y-142754819D01*
X174999999Y-142754819D02*
X174999999Y-141754819D01*
X174999999Y-141754819D02*
X175095237Y-141897676D01*
X175095237Y-141897676D02*
X175190475Y-141992914D01*
X175190475Y-141992914D02*
X175285713Y-142040533D01*
X174333332Y-141850057D02*
X174285713Y-141802438D01*
X174285713Y-141802438D02*
X174190475Y-141754819D01*
X174190475Y-141754819D02*
X173952380Y-141754819D01*
X173952380Y-141754819D02*
X173857142Y-141802438D01*
X173857142Y-141802438D02*
X173809523Y-141850057D01*
X173809523Y-141850057D02*
X173761904Y-141945295D01*
X173761904Y-141945295D02*
X173761904Y-142040533D01*
X173761904Y-142040533D02*
X173809523Y-142183390D01*
X173809523Y-142183390D02*
X174380951Y-142754819D01*
X174380951Y-142754819D02*
X173761904Y-142754819D01*
X234319047Y-151554819D02*
X234652380Y-151078628D01*
X234890475Y-151554819D02*
X234890475Y-150554819D01*
X234890475Y-150554819D02*
X234509523Y-150554819D01*
X234509523Y-150554819D02*
X234414285Y-150602438D01*
X234414285Y-150602438D02*
X234366666Y-150650057D01*
X234366666Y-150650057D02*
X234319047Y-150745295D01*
X234319047Y-150745295D02*
X234319047Y-150888152D01*
X234319047Y-150888152D02*
X234366666Y-150983390D01*
X234366666Y-150983390D02*
X234414285Y-151031009D01*
X234414285Y-151031009D02*
X234509523Y-151078628D01*
X234509523Y-151078628D02*
X234890475Y-151078628D01*
X233366666Y-151554819D02*
X233938094Y-151554819D01*
X233652380Y-151554819D02*
X233652380Y-150554819D01*
X233652380Y-150554819D02*
X233747618Y-150697676D01*
X233747618Y-150697676D02*
X233842856Y-150792914D01*
X233842856Y-150792914D02*
X233938094Y-150840533D01*
X232414285Y-151554819D02*
X232985713Y-151554819D01*
X232699999Y-151554819D02*
X232699999Y-150554819D01*
X232699999Y-150554819D02*
X232795237Y-150697676D01*
X232795237Y-150697676D02*
X232890475Y-150792914D01*
X232890475Y-150792914D02*
X232985713Y-150840533D01*
X232080951Y-150554819D02*
X231414285Y-150554819D01*
X231414285Y-150554819D02*
X231842856Y-151554819D01*
X219019047Y-149954819D02*
X219352380Y-149478628D01*
X219590475Y-149954819D02*
X219590475Y-148954819D01*
X219590475Y-148954819D02*
X219209523Y-148954819D01*
X219209523Y-148954819D02*
X219114285Y-149002438D01*
X219114285Y-149002438D02*
X219066666Y-149050057D01*
X219066666Y-149050057D02*
X219019047Y-149145295D01*
X219019047Y-149145295D02*
X219019047Y-149288152D01*
X219019047Y-149288152D02*
X219066666Y-149383390D01*
X219066666Y-149383390D02*
X219114285Y-149431009D01*
X219114285Y-149431009D02*
X219209523Y-149478628D01*
X219209523Y-149478628D02*
X219590475Y-149478628D01*
X218066666Y-149954819D02*
X218638094Y-149954819D01*
X218352380Y-149954819D02*
X218352380Y-148954819D01*
X218352380Y-148954819D02*
X218447618Y-149097676D01*
X218447618Y-149097676D02*
X218542856Y-149192914D01*
X218542856Y-149192914D02*
X218638094Y-149240533D01*
X217685713Y-149050057D02*
X217638094Y-149002438D01*
X217638094Y-149002438D02*
X217542856Y-148954819D01*
X217542856Y-148954819D02*
X217304761Y-148954819D01*
X217304761Y-148954819D02*
X217209523Y-149002438D01*
X217209523Y-149002438D02*
X217161904Y-149050057D01*
X217161904Y-149050057D02*
X217114285Y-149145295D01*
X217114285Y-149145295D02*
X217114285Y-149240533D01*
X217114285Y-149240533D02*
X217161904Y-149383390D01*
X217161904Y-149383390D02*
X217733332Y-149954819D01*
X217733332Y-149954819D02*
X217114285Y-149954819D01*
X216495237Y-148954819D02*
X216399999Y-148954819D01*
X216399999Y-148954819D02*
X216304761Y-149002438D01*
X216304761Y-149002438D02*
X216257142Y-149050057D01*
X216257142Y-149050057D02*
X216209523Y-149145295D01*
X216209523Y-149145295D02*
X216161904Y-149335771D01*
X216161904Y-149335771D02*
X216161904Y-149573866D01*
X216161904Y-149573866D02*
X216209523Y-149764342D01*
X216209523Y-149764342D02*
X216257142Y-149859580D01*
X216257142Y-149859580D02*
X216304761Y-149907200D01*
X216304761Y-149907200D02*
X216399999Y-149954819D01*
X216399999Y-149954819D02*
X216495237Y-149954819D01*
X216495237Y-149954819D02*
X216590475Y-149907200D01*
X216590475Y-149907200D02*
X216638094Y-149859580D01*
X216638094Y-149859580D02*
X216685713Y-149764342D01*
X216685713Y-149764342D02*
X216733332Y-149573866D01*
X216733332Y-149573866D02*
X216733332Y-149335771D01*
X216733332Y-149335771D02*
X216685713Y-149145295D01*
X216685713Y-149145295D02*
X216638094Y-149050057D01*
X216638094Y-149050057D02*
X216590475Y-149002438D01*
X216590475Y-149002438D02*
X216495237Y-148954819D01*
X164519047Y-144454819D02*
X164852380Y-143978628D01*
X165090475Y-144454819D02*
X165090475Y-143454819D01*
X165090475Y-143454819D02*
X164709523Y-143454819D01*
X164709523Y-143454819D02*
X164614285Y-143502438D01*
X164614285Y-143502438D02*
X164566666Y-143550057D01*
X164566666Y-143550057D02*
X164519047Y-143645295D01*
X164519047Y-143645295D02*
X164519047Y-143788152D01*
X164519047Y-143788152D02*
X164566666Y-143883390D01*
X164566666Y-143883390D02*
X164614285Y-143931009D01*
X164614285Y-143931009D02*
X164709523Y-143978628D01*
X164709523Y-143978628D02*
X165090475Y-143978628D01*
X163566666Y-144454819D02*
X164138094Y-144454819D01*
X163852380Y-144454819D02*
X163852380Y-143454819D01*
X163852380Y-143454819D02*
X163947618Y-143597676D01*
X163947618Y-143597676D02*
X164042856Y-143692914D01*
X164042856Y-143692914D02*
X164138094Y-143740533D01*
X162614285Y-144454819D02*
X163185713Y-144454819D01*
X162899999Y-144454819D02*
X162899999Y-143454819D01*
X162899999Y-143454819D02*
X162995237Y-143597676D01*
X162995237Y-143597676D02*
X163090475Y-143692914D01*
X163090475Y-143692914D02*
X163185713Y-143740533D01*
X161661904Y-144454819D02*
X162233332Y-144454819D01*
X161947618Y-144454819D02*
X161947618Y-143454819D01*
X161947618Y-143454819D02*
X162042856Y-143597676D01*
X162042856Y-143597676D02*
X162138094Y-143692914D01*
X162138094Y-143692914D02*
X162233332Y-143740533D01*
X165419047Y-152554819D02*
X165752380Y-152078628D01*
X165990475Y-152554819D02*
X165990475Y-151554819D01*
X165990475Y-151554819D02*
X165609523Y-151554819D01*
X165609523Y-151554819D02*
X165514285Y-151602438D01*
X165514285Y-151602438D02*
X165466666Y-151650057D01*
X165466666Y-151650057D02*
X165419047Y-151745295D01*
X165419047Y-151745295D02*
X165419047Y-151888152D01*
X165419047Y-151888152D02*
X165466666Y-151983390D01*
X165466666Y-151983390D02*
X165514285Y-152031009D01*
X165514285Y-152031009D02*
X165609523Y-152078628D01*
X165609523Y-152078628D02*
X165990475Y-152078628D01*
X164466666Y-152554819D02*
X165038094Y-152554819D01*
X164752380Y-152554819D02*
X164752380Y-151554819D01*
X164752380Y-151554819D02*
X164847618Y-151697676D01*
X164847618Y-151697676D02*
X164942856Y-151792914D01*
X164942856Y-151792914D02*
X165038094Y-151840533D01*
X163847618Y-151554819D02*
X163752380Y-151554819D01*
X163752380Y-151554819D02*
X163657142Y-151602438D01*
X163657142Y-151602438D02*
X163609523Y-151650057D01*
X163609523Y-151650057D02*
X163561904Y-151745295D01*
X163561904Y-151745295D02*
X163514285Y-151935771D01*
X163514285Y-151935771D02*
X163514285Y-152173866D01*
X163514285Y-152173866D02*
X163561904Y-152364342D01*
X163561904Y-152364342D02*
X163609523Y-152459580D01*
X163609523Y-152459580D02*
X163657142Y-152507200D01*
X163657142Y-152507200D02*
X163752380Y-152554819D01*
X163752380Y-152554819D02*
X163847618Y-152554819D01*
X163847618Y-152554819D02*
X163942856Y-152507200D01*
X163942856Y-152507200D02*
X163990475Y-152459580D01*
X163990475Y-152459580D02*
X164038094Y-152364342D01*
X164038094Y-152364342D02*
X164085713Y-152173866D01*
X164085713Y-152173866D02*
X164085713Y-151935771D01*
X164085713Y-151935771D02*
X164038094Y-151745295D01*
X164038094Y-151745295D02*
X163990475Y-151650057D01*
X163990475Y-151650057D02*
X163942856Y-151602438D01*
X163942856Y-151602438D02*
X163847618Y-151554819D01*
X163038094Y-152554819D02*
X162847618Y-152554819D01*
X162847618Y-152554819D02*
X162752380Y-152507200D01*
X162752380Y-152507200D02*
X162704761Y-152459580D01*
X162704761Y-152459580D02*
X162609523Y-152316723D01*
X162609523Y-152316723D02*
X162561904Y-152126247D01*
X162561904Y-152126247D02*
X162561904Y-151745295D01*
X162561904Y-151745295D02*
X162609523Y-151650057D01*
X162609523Y-151650057D02*
X162657142Y-151602438D01*
X162657142Y-151602438D02*
X162752380Y-151554819D01*
X162752380Y-151554819D02*
X162942856Y-151554819D01*
X162942856Y-151554819D02*
X163038094Y-151602438D01*
X163038094Y-151602438D02*
X163085713Y-151650057D01*
X163085713Y-151650057D02*
X163133332Y-151745295D01*
X163133332Y-151745295D02*
X163133332Y-151983390D01*
X163133332Y-151983390D02*
X163085713Y-152078628D01*
X163085713Y-152078628D02*
X163038094Y-152126247D01*
X163038094Y-152126247D02*
X162942856Y-152173866D01*
X162942856Y-152173866D02*
X162752380Y-152173866D01*
X162752380Y-152173866D02*
X162657142Y-152126247D01*
X162657142Y-152126247D02*
X162609523Y-152078628D01*
X162609523Y-152078628D02*
X162561904Y-151983390D01*
X164742857Y-146359580D02*
X164790476Y-146407200D01*
X164790476Y-146407200D02*
X164933333Y-146454819D01*
X164933333Y-146454819D02*
X165028571Y-146454819D01*
X165028571Y-146454819D02*
X165171428Y-146407200D01*
X165171428Y-146407200D02*
X165266666Y-146311961D01*
X165266666Y-146311961D02*
X165314285Y-146216723D01*
X165314285Y-146216723D02*
X165361904Y-146026247D01*
X165361904Y-146026247D02*
X165361904Y-145883390D01*
X165361904Y-145883390D02*
X165314285Y-145692914D01*
X165314285Y-145692914D02*
X165266666Y-145597676D01*
X165266666Y-145597676D02*
X165171428Y-145502438D01*
X165171428Y-145502438D02*
X165028571Y-145454819D01*
X165028571Y-145454819D02*
X164933333Y-145454819D01*
X164933333Y-145454819D02*
X164790476Y-145502438D01*
X164790476Y-145502438D02*
X164742857Y-145550057D01*
X164409523Y-145454819D02*
X163790476Y-145454819D01*
X163790476Y-145454819D02*
X164123809Y-145835771D01*
X164123809Y-145835771D02*
X163980952Y-145835771D01*
X163980952Y-145835771D02*
X163885714Y-145883390D01*
X163885714Y-145883390D02*
X163838095Y-145931009D01*
X163838095Y-145931009D02*
X163790476Y-146026247D01*
X163790476Y-146026247D02*
X163790476Y-146264342D01*
X163790476Y-146264342D02*
X163838095Y-146359580D01*
X163838095Y-146359580D02*
X163885714Y-146407200D01*
X163885714Y-146407200D02*
X163980952Y-146454819D01*
X163980952Y-146454819D02*
X164266666Y-146454819D01*
X164266666Y-146454819D02*
X164361904Y-146407200D01*
X164361904Y-146407200D02*
X164409523Y-146359580D01*
X162933333Y-145788152D02*
X162933333Y-146454819D01*
X163171428Y-145407200D02*
X163409523Y-146121485D01*
X163409523Y-146121485D02*
X162790476Y-146121485D01*
X126604819Y-174357142D02*
X126128628Y-174023809D01*
X126604819Y-173785714D02*
X125604819Y-173785714D01*
X125604819Y-173785714D02*
X125604819Y-174166666D01*
X125604819Y-174166666D02*
X125652438Y-174261904D01*
X125652438Y-174261904D02*
X125700057Y-174309523D01*
X125700057Y-174309523D02*
X125795295Y-174357142D01*
X125795295Y-174357142D02*
X125938152Y-174357142D01*
X125938152Y-174357142D02*
X126033390Y-174309523D01*
X126033390Y-174309523D02*
X126081009Y-174261904D01*
X126081009Y-174261904D02*
X126128628Y-174166666D01*
X126128628Y-174166666D02*
X126128628Y-173785714D01*
X125604819Y-174690476D02*
X125604819Y-175309523D01*
X125604819Y-175309523D02*
X125985771Y-174976190D01*
X125985771Y-174976190D02*
X125985771Y-175119047D01*
X125985771Y-175119047D02*
X126033390Y-175214285D01*
X126033390Y-175214285D02*
X126081009Y-175261904D01*
X126081009Y-175261904D02*
X126176247Y-175309523D01*
X126176247Y-175309523D02*
X126414342Y-175309523D01*
X126414342Y-175309523D02*
X126509580Y-175261904D01*
X126509580Y-175261904D02*
X126557200Y-175214285D01*
X126557200Y-175214285D02*
X126604819Y-175119047D01*
X126604819Y-175119047D02*
X126604819Y-174833333D01*
X126604819Y-174833333D02*
X126557200Y-174738095D01*
X126557200Y-174738095D02*
X126509580Y-174690476D01*
X126604819Y-176261904D02*
X126604819Y-175690476D01*
X126604819Y-175976190D02*
X125604819Y-175976190D01*
X125604819Y-175976190D02*
X125747676Y-175880952D01*
X125747676Y-175880952D02*
X125842914Y-175785714D01*
X125842914Y-175785714D02*
X125890533Y-175690476D01*
X140862557Y-170654761D02*
X140814938Y-170559523D01*
X140814938Y-170559523D02*
X140719700Y-170464285D01*
X140719700Y-170464285D02*
X140576842Y-170321428D01*
X140576842Y-170321428D02*
X140529223Y-170226190D01*
X140529223Y-170226190D02*
X140529223Y-170130952D01*
X140767319Y-170178571D02*
X140719700Y-170083333D01*
X140719700Y-170083333D02*
X140624461Y-169988095D01*
X140624461Y-169988095D02*
X140433985Y-169940476D01*
X140433985Y-169940476D02*
X140100652Y-169940476D01*
X140100652Y-169940476D02*
X139910176Y-169988095D01*
X139910176Y-169988095D02*
X139814938Y-170083333D01*
X139814938Y-170083333D02*
X139767319Y-170178571D01*
X139767319Y-170178571D02*
X139767319Y-170369047D01*
X139767319Y-170369047D02*
X139814938Y-170464285D01*
X139814938Y-170464285D02*
X139910176Y-170559523D01*
X139910176Y-170559523D02*
X140100652Y-170607142D01*
X140100652Y-170607142D02*
X140433985Y-170607142D01*
X140433985Y-170607142D02*
X140624461Y-170559523D01*
X140624461Y-170559523D02*
X140719700Y-170464285D01*
X140719700Y-170464285D02*
X140767319Y-170369047D01*
X140767319Y-170369047D02*
X140767319Y-170178571D01*
X139862557Y-170988095D02*
X139814938Y-171035714D01*
X139814938Y-171035714D02*
X139767319Y-171130952D01*
X139767319Y-171130952D02*
X139767319Y-171369047D01*
X139767319Y-171369047D02*
X139814938Y-171464285D01*
X139814938Y-171464285D02*
X139862557Y-171511904D01*
X139862557Y-171511904D02*
X139957795Y-171559523D01*
X139957795Y-171559523D02*
X140053033Y-171559523D01*
X140053033Y-171559523D02*
X140195890Y-171511904D01*
X140195890Y-171511904D02*
X140767319Y-170940476D01*
X140767319Y-170940476D02*
X140767319Y-171559523D01*
X126550057Y-170654761D02*
X126502438Y-170559523D01*
X126502438Y-170559523D02*
X126407200Y-170464285D01*
X126407200Y-170464285D02*
X126264342Y-170321428D01*
X126264342Y-170321428D02*
X126216723Y-170226190D01*
X126216723Y-170226190D02*
X126216723Y-170130952D01*
X126454819Y-170178571D02*
X126407200Y-170083333D01*
X126407200Y-170083333D02*
X126311961Y-169988095D01*
X126311961Y-169988095D02*
X126121485Y-169940476D01*
X126121485Y-169940476D02*
X125788152Y-169940476D01*
X125788152Y-169940476D02*
X125597676Y-169988095D01*
X125597676Y-169988095D02*
X125502438Y-170083333D01*
X125502438Y-170083333D02*
X125454819Y-170178571D01*
X125454819Y-170178571D02*
X125454819Y-170369047D01*
X125454819Y-170369047D02*
X125502438Y-170464285D01*
X125502438Y-170464285D02*
X125597676Y-170559523D01*
X125597676Y-170559523D02*
X125788152Y-170607142D01*
X125788152Y-170607142D02*
X126121485Y-170607142D01*
X126121485Y-170607142D02*
X126311961Y-170559523D01*
X126311961Y-170559523D02*
X126407200Y-170464285D01*
X126407200Y-170464285D02*
X126454819Y-170369047D01*
X126454819Y-170369047D02*
X126454819Y-170178571D01*
X126454819Y-171559523D02*
X126454819Y-170988095D01*
X126454819Y-171273809D02*
X125454819Y-171273809D01*
X125454819Y-171273809D02*
X125597676Y-171178571D01*
X125597676Y-171178571D02*
X125692914Y-171083333D01*
X125692914Y-171083333D02*
X125740533Y-170988095D01*
X180042857Y-145959580D02*
X180090476Y-146007200D01*
X180090476Y-146007200D02*
X180233333Y-146054819D01*
X180233333Y-146054819D02*
X180328571Y-146054819D01*
X180328571Y-146054819D02*
X180471428Y-146007200D01*
X180471428Y-146007200D02*
X180566666Y-145911961D01*
X180566666Y-145911961D02*
X180614285Y-145816723D01*
X180614285Y-145816723D02*
X180661904Y-145626247D01*
X180661904Y-145626247D02*
X180661904Y-145483390D01*
X180661904Y-145483390D02*
X180614285Y-145292914D01*
X180614285Y-145292914D02*
X180566666Y-145197676D01*
X180566666Y-145197676D02*
X180471428Y-145102438D01*
X180471428Y-145102438D02*
X180328571Y-145054819D01*
X180328571Y-145054819D02*
X180233333Y-145054819D01*
X180233333Y-145054819D02*
X180090476Y-145102438D01*
X180090476Y-145102438D02*
X180042857Y-145150057D01*
X179709523Y-145054819D02*
X179090476Y-145054819D01*
X179090476Y-145054819D02*
X179423809Y-145435771D01*
X179423809Y-145435771D02*
X179280952Y-145435771D01*
X179280952Y-145435771D02*
X179185714Y-145483390D01*
X179185714Y-145483390D02*
X179138095Y-145531009D01*
X179138095Y-145531009D02*
X179090476Y-145626247D01*
X179090476Y-145626247D02*
X179090476Y-145864342D01*
X179090476Y-145864342D02*
X179138095Y-145959580D01*
X179138095Y-145959580D02*
X179185714Y-146007200D01*
X179185714Y-146007200D02*
X179280952Y-146054819D01*
X179280952Y-146054819D02*
X179566666Y-146054819D01*
X179566666Y-146054819D02*
X179661904Y-146007200D01*
X179661904Y-146007200D02*
X179709523Y-145959580D01*
X178185714Y-145054819D02*
X178661904Y-145054819D01*
X178661904Y-145054819D02*
X178709523Y-145531009D01*
X178709523Y-145531009D02*
X178661904Y-145483390D01*
X178661904Y-145483390D02*
X178566666Y-145435771D01*
X178566666Y-145435771D02*
X178328571Y-145435771D01*
X178328571Y-145435771D02*
X178233333Y-145483390D01*
X178233333Y-145483390D02*
X178185714Y-145531009D01*
X178185714Y-145531009D02*
X178138095Y-145626247D01*
X178138095Y-145626247D02*
X178138095Y-145864342D01*
X178138095Y-145864342D02*
X178185714Y-145959580D01*
X178185714Y-145959580D02*
X178233333Y-146007200D01*
X178233333Y-146007200D02*
X178328571Y-146054819D01*
X178328571Y-146054819D02*
X178566666Y-146054819D01*
X178566666Y-146054819D02*
X178661904Y-146007200D01*
X178661904Y-146007200D02*
X178709523Y-145959580D01*
X141254819Y-174357142D02*
X140778628Y-174023809D01*
X141254819Y-173785714D02*
X140254819Y-173785714D01*
X140254819Y-173785714D02*
X140254819Y-174166666D01*
X140254819Y-174166666D02*
X140302438Y-174261904D01*
X140302438Y-174261904D02*
X140350057Y-174309523D01*
X140350057Y-174309523D02*
X140445295Y-174357142D01*
X140445295Y-174357142D02*
X140588152Y-174357142D01*
X140588152Y-174357142D02*
X140683390Y-174309523D01*
X140683390Y-174309523D02*
X140731009Y-174261904D01*
X140731009Y-174261904D02*
X140778628Y-174166666D01*
X140778628Y-174166666D02*
X140778628Y-173785714D01*
X140254819Y-174690476D02*
X140254819Y-175309523D01*
X140254819Y-175309523D02*
X140635771Y-174976190D01*
X140635771Y-174976190D02*
X140635771Y-175119047D01*
X140635771Y-175119047D02*
X140683390Y-175214285D01*
X140683390Y-175214285D02*
X140731009Y-175261904D01*
X140731009Y-175261904D02*
X140826247Y-175309523D01*
X140826247Y-175309523D02*
X141064342Y-175309523D01*
X141064342Y-175309523D02*
X141159580Y-175261904D01*
X141159580Y-175261904D02*
X141207200Y-175214285D01*
X141207200Y-175214285D02*
X141254819Y-175119047D01*
X141254819Y-175119047D02*
X141254819Y-174833333D01*
X141254819Y-174833333D02*
X141207200Y-174738095D01*
X141207200Y-174738095D02*
X141159580Y-174690476D01*
X140254819Y-175642857D02*
X140254819Y-176309523D01*
X140254819Y-176309523D02*
X141254819Y-175880952D01*
X165419047Y-154754819D02*
X165752380Y-154278628D01*
X165990475Y-154754819D02*
X165990475Y-153754819D01*
X165990475Y-153754819D02*
X165609523Y-153754819D01*
X165609523Y-153754819D02*
X165514285Y-153802438D01*
X165514285Y-153802438D02*
X165466666Y-153850057D01*
X165466666Y-153850057D02*
X165419047Y-153945295D01*
X165419047Y-153945295D02*
X165419047Y-154088152D01*
X165419047Y-154088152D02*
X165466666Y-154183390D01*
X165466666Y-154183390D02*
X165514285Y-154231009D01*
X165514285Y-154231009D02*
X165609523Y-154278628D01*
X165609523Y-154278628D02*
X165990475Y-154278628D01*
X164466666Y-154754819D02*
X165038094Y-154754819D01*
X164752380Y-154754819D02*
X164752380Y-153754819D01*
X164752380Y-153754819D02*
X164847618Y-153897676D01*
X164847618Y-153897676D02*
X164942856Y-153992914D01*
X164942856Y-153992914D02*
X165038094Y-154040533D01*
X163514285Y-154754819D02*
X164085713Y-154754819D01*
X163799999Y-154754819D02*
X163799999Y-153754819D01*
X163799999Y-153754819D02*
X163895237Y-153897676D01*
X163895237Y-153897676D02*
X163990475Y-153992914D01*
X163990475Y-153992914D02*
X164085713Y-154040533D01*
X162895237Y-153754819D02*
X162799999Y-153754819D01*
X162799999Y-153754819D02*
X162704761Y-153802438D01*
X162704761Y-153802438D02*
X162657142Y-153850057D01*
X162657142Y-153850057D02*
X162609523Y-153945295D01*
X162609523Y-153945295D02*
X162561904Y-154135771D01*
X162561904Y-154135771D02*
X162561904Y-154373866D01*
X162561904Y-154373866D02*
X162609523Y-154564342D01*
X162609523Y-154564342D02*
X162657142Y-154659580D01*
X162657142Y-154659580D02*
X162704761Y-154707200D01*
X162704761Y-154707200D02*
X162799999Y-154754819D01*
X162799999Y-154754819D02*
X162895237Y-154754819D01*
X162895237Y-154754819D02*
X162990475Y-154707200D01*
X162990475Y-154707200D02*
X163038094Y-154659580D01*
X163038094Y-154659580D02*
X163085713Y-154564342D01*
X163085713Y-154564342D02*
X163133332Y-154373866D01*
X163133332Y-154373866D02*
X163133332Y-154135771D01*
X163133332Y-154135771D02*
X163085713Y-153945295D01*
X163085713Y-153945295D02*
X163038094Y-153850057D01*
X163038094Y-153850057D02*
X162990475Y-153802438D01*
X162990475Y-153802438D02*
X162895237Y-153754819D01*
X226450057Y-145228571D02*
X226402438Y-145133333D01*
X226402438Y-145133333D02*
X226307200Y-145038095D01*
X226307200Y-145038095D02*
X226164342Y-144895238D01*
X226164342Y-144895238D02*
X226116723Y-144800000D01*
X226116723Y-144800000D02*
X226116723Y-144704762D01*
X226354819Y-144752381D02*
X226307200Y-144657143D01*
X226307200Y-144657143D02*
X226211961Y-144561905D01*
X226211961Y-144561905D02*
X226021485Y-144514286D01*
X226021485Y-144514286D02*
X225688152Y-144514286D01*
X225688152Y-144514286D02*
X225497676Y-144561905D01*
X225497676Y-144561905D02*
X225402438Y-144657143D01*
X225402438Y-144657143D02*
X225354819Y-144752381D01*
X225354819Y-144752381D02*
X225354819Y-144942857D01*
X225354819Y-144942857D02*
X225402438Y-145038095D01*
X225402438Y-145038095D02*
X225497676Y-145133333D01*
X225497676Y-145133333D02*
X225688152Y-145180952D01*
X225688152Y-145180952D02*
X226021485Y-145180952D01*
X226021485Y-145180952D02*
X226211961Y-145133333D01*
X226211961Y-145133333D02*
X226307200Y-145038095D01*
X226307200Y-145038095D02*
X226354819Y-144942857D01*
X226354819Y-144942857D02*
X226354819Y-144752381D01*
X225354819Y-145514286D02*
X225354819Y-146133333D01*
X225354819Y-146133333D02*
X225735771Y-145800000D01*
X225735771Y-145800000D02*
X225735771Y-145942857D01*
X225735771Y-145942857D02*
X225783390Y-146038095D01*
X225783390Y-146038095D02*
X225831009Y-146085714D01*
X225831009Y-146085714D02*
X225926247Y-146133333D01*
X225926247Y-146133333D02*
X226164342Y-146133333D01*
X226164342Y-146133333D02*
X226259580Y-146085714D01*
X226259580Y-146085714D02*
X226307200Y-146038095D01*
X226307200Y-146038095D02*
X226354819Y-145942857D01*
X226354819Y-145942857D02*
X226354819Y-145657143D01*
X226354819Y-145657143D02*
X226307200Y-145561905D01*
X226307200Y-145561905D02*
X226259580Y-145514286D01*
X226354819Y-147085714D02*
X226354819Y-146514286D01*
X226354819Y-146800000D02*
X225354819Y-146800000D01*
X225354819Y-146800000D02*
X225497676Y-146704762D01*
X225497676Y-146704762D02*
X225592914Y-146609524D01*
X225592914Y-146609524D02*
X225640533Y-146514286D01*
D14*
X164195270Y-159024285D02*
X164134794Y-158903333D01*
X164134794Y-158903333D02*
X164013842Y-158782380D01*
X164013842Y-158782380D02*
X163832413Y-158600952D01*
X163832413Y-158600952D02*
X163771937Y-158479999D01*
X163771937Y-158479999D02*
X163771937Y-158359047D01*
X164074318Y-158419523D02*
X164013842Y-158298571D01*
X164013842Y-158298571D02*
X163892889Y-158177618D01*
X163892889Y-158177618D02*
X163650984Y-158117142D01*
X163650984Y-158117142D02*
X163227651Y-158117142D01*
X163227651Y-158117142D02*
X162985746Y-158177618D01*
X162985746Y-158177618D02*
X162864794Y-158298571D01*
X162864794Y-158298571D02*
X162804318Y-158419523D01*
X162804318Y-158419523D02*
X162804318Y-158661428D01*
X162804318Y-158661428D02*
X162864794Y-158782380D01*
X162864794Y-158782380D02*
X162985746Y-158903333D01*
X162985746Y-158903333D02*
X163227651Y-158963809D01*
X163227651Y-158963809D02*
X163650984Y-158963809D01*
X163650984Y-158963809D02*
X163892889Y-158903333D01*
X163892889Y-158903333D02*
X164013842Y-158782380D01*
X164013842Y-158782380D02*
X164074318Y-158661428D01*
X164074318Y-158661428D02*
X164074318Y-158419523D01*
X162925270Y-159447618D02*
X162864794Y-159508094D01*
X162864794Y-159508094D02*
X162804318Y-159629047D01*
X162804318Y-159629047D02*
X162804318Y-159931428D01*
X162804318Y-159931428D02*
X162864794Y-160052380D01*
X162864794Y-160052380D02*
X162925270Y-160112856D01*
X162925270Y-160112856D02*
X163046222Y-160173333D01*
X163046222Y-160173333D02*
X163167175Y-160173333D01*
X163167175Y-160173333D02*
X163348603Y-160112856D01*
X163348603Y-160112856D02*
X164074318Y-159387142D01*
X164074318Y-159387142D02*
X164074318Y-160173333D01*
X162804318Y-160596666D02*
X162804318Y-161443333D01*
X162804318Y-161443333D02*
X164074318Y-160899047D01*
D15*
X218142857Y-143559580D02*
X218190476Y-143607200D01*
X218190476Y-143607200D02*
X218333333Y-143654819D01*
X218333333Y-143654819D02*
X218428571Y-143654819D01*
X218428571Y-143654819D02*
X218571428Y-143607200D01*
X218571428Y-143607200D02*
X218666666Y-143511961D01*
X218666666Y-143511961D02*
X218714285Y-143416723D01*
X218714285Y-143416723D02*
X218761904Y-143226247D01*
X218761904Y-143226247D02*
X218761904Y-143083390D01*
X218761904Y-143083390D02*
X218714285Y-142892914D01*
X218714285Y-142892914D02*
X218666666Y-142797676D01*
X218666666Y-142797676D02*
X218571428Y-142702438D01*
X218571428Y-142702438D02*
X218428571Y-142654819D01*
X218428571Y-142654819D02*
X218333333Y-142654819D01*
X218333333Y-142654819D02*
X218190476Y-142702438D01*
X218190476Y-142702438D02*
X218142857Y-142750057D01*
X217809523Y-142654819D02*
X217190476Y-142654819D01*
X217190476Y-142654819D02*
X217523809Y-143035771D01*
X217523809Y-143035771D02*
X217380952Y-143035771D01*
X217380952Y-143035771D02*
X217285714Y-143083390D01*
X217285714Y-143083390D02*
X217238095Y-143131009D01*
X217238095Y-143131009D02*
X217190476Y-143226247D01*
X217190476Y-143226247D02*
X217190476Y-143464342D01*
X217190476Y-143464342D02*
X217238095Y-143559580D01*
X217238095Y-143559580D02*
X217285714Y-143607200D01*
X217285714Y-143607200D02*
X217380952Y-143654819D01*
X217380952Y-143654819D02*
X217666666Y-143654819D01*
X217666666Y-143654819D02*
X217761904Y-143607200D01*
X217761904Y-143607200D02*
X217809523Y-143559580D01*
X216857142Y-142654819D02*
X216190476Y-142654819D01*
X216190476Y-142654819D02*
X216619047Y-143654819D01*
D16*
%TO.C,Q30*%
X172750000Y-158000000D02*
X172750000Y-161500000D01*
X172750000Y-161500000D02*
X179250000Y-161500000D01*
X172900000Y-155850000D02*
X172900000Y-157650000D01*
X179250000Y-158000000D02*
X172750000Y-158000000D01*
X179250000Y-161500000D02*
X179250000Y-158000000D01*
%TO.C,Q34*%
X218000000Y-155230000D02*
X218000000Y-158730000D01*
X218000000Y-158730000D02*
X224500000Y-158730000D01*
X218150000Y-153080000D02*
X218150000Y-154880000D01*
X224500000Y-155230000D02*
X218000000Y-155230000D01*
X224500000Y-158730000D02*
X224500000Y-155230000D01*
D17*
%TO.C,R116*%
X229272936Y-148745000D02*
X229727064Y-148745000D01*
X229272936Y-150215000D02*
X229727064Y-150215000D01*
%TO.C,Q33*%
X218940000Y-146230000D02*
X218940000Y-145580000D01*
X218940000Y-146230000D02*
X218940000Y-146880000D01*
X222060000Y-146230000D02*
X222060000Y-145580000D01*
X222060000Y-146230000D02*
X222060000Y-146880000D01*
X218990000Y-145067500D02*
X218660000Y-145307500D01*
X218660000Y-144827500D01*
X218990000Y-145067500D01*
G36*
X218990000Y-145067500D02*
G01*
X218660000Y-145307500D01*
X218660000Y-144827500D01*
X218990000Y-145067500D01*
G37*
%TO.C,Q29*%
X173690000Y-149000000D02*
X173690000Y-148350000D01*
X173690000Y-149000000D02*
X173690000Y-149650000D01*
X176810000Y-149000000D02*
X176810000Y-148350000D01*
X176810000Y-149000000D02*
X176810000Y-149650000D01*
X173740000Y-147837500D02*
X173410000Y-148077500D01*
X173410000Y-147597500D01*
X173740000Y-147837500D01*
G36*
X173740000Y-147837500D02*
G01*
X173410000Y-148077500D01*
X173410000Y-147597500D01*
X173740000Y-147837500D01*
G37*
%TO.C,R114*%
X176022936Y-151515000D02*
X176477064Y-151515000D01*
X176022936Y-152985000D02*
X176477064Y-152985000D01*
%TO.C,R115*%
X228272936Y-140495000D02*
X228727064Y-140495000D01*
X228272936Y-141965000D02*
X228727064Y-141965000D01*
D16*
%TO.C,Q32*%
X226250000Y-155230000D02*
X226250000Y-158730000D01*
X226250000Y-158730000D02*
X232750000Y-158730000D01*
X226400000Y-153080000D02*
X226400000Y-154880000D01*
X232750000Y-155230000D02*
X226250000Y-155230000D01*
X232750000Y-158730000D02*
X232750000Y-155230000D01*
D17*
%TO.C,R102*%
X261015000Y-118522936D02*
X261015000Y-118977064D01*
X262485000Y-118522936D02*
X262485000Y-118977064D01*
%TO.C,R118*%
X220272936Y-140495000D02*
X220727064Y-140495000D01*
X220272936Y-141965000D02*
X220727064Y-141965000D01*
%TO.C,R119*%
X221272936Y-150765000D02*
X221727064Y-150765000D01*
X221272936Y-152235000D02*
X221727064Y-152235000D01*
%TO.C,Q28*%
X165440000Y-149000000D02*
X165440000Y-148350000D01*
X165440000Y-149000000D02*
X165440000Y-149650000D01*
X168560000Y-149000000D02*
X168560000Y-148350000D01*
X168560000Y-149000000D02*
X168560000Y-149650000D01*
X165490000Y-147837500D02*
X165160000Y-148077500D01*
X165160000Y-147597500D01*
X165490000Y-147837500D01*
G36*
X165490000Y-147837500D02*
G01*
X165160000Y-148077500D01*
X165160000Y-147597500D01*
X165490000Y-147837500D01*
G37*
%TO.C,C36*%
X228359420Y-142720000D02*
X228640580Y-142720000D01*
X228359420Y-143740000D02*
X228640580Y-143740000D01*
%TO.C,R32*%
X136015000Y-175227064D02*
X136015000Y-174772936D01*
X137485000Y-175227064D02*
X137485000Y-174772936D01*
%TO.C,R103*%
X295015000Y-117772936D02*
X295015000Y-118227064D01*
X296485000Y-117772936D02*
X296485000Y-118227064D01*
%TO.C,R113*%
X176022936Y-153515000D02*
X176477064Y-153515000D01*
X176022936Y-154985000D02*
X176477064Y-154985000D01*
%TO.C,R104*%
X292515000Y-117772936D02*
X292515000Y-118227064D01*
X293985000Y-117772936D02*
X293985000Y-118227064D01*
%TO.C,R112*%
X175272936Y-143265000D02*
X175727064Y-143265000D01*
X175272936Y-144735000D02*
X175727064Y-144735000D01*
%TO.C,R117*%
X229272936Y-150745000D02*
X229727064Y-150745000D01*
X229272936Y-152215000D02*
X229727064Y-152215000D01*
%TO.C,R120*%
X221272936Y-148745000D02*
X221727064Y-148745000D01*
X221272936Y-150215000D02*
X221727064Y-150215000D01*
%TO.C,R111*%
X166772936Y-143265000D02*
X167227064Y-143265000D01*
X166772936Y-144735000D02*
X167227064Y-144735000D01*
%TO.C,R109*%
X167772936Y-151515000D02*
X168227064Y-151515000D01*
X167772936Y-152985000D02*
X168227064Y-152985000D01*
%TO.C,C34*%
X166859420Y-145490000D02*
X167140580Y-145490000D01*
X166859420Y-146510000D02*
X167140580Y-146510000D01*
%TO.C,R31*%
X127015000Y-175227064D02*
X127015000Y-174772936D01*
X128485000Y-175227064D02*
X128485000Y-174772936D01*
%TO.C,Q2*%
X136352500Y-170750000D02*
X136352500Y-170100000D01*
X136352500Y-170750000D02*
X136352500Y-171400000D01*
X139472500Y-170750000D02*
X139472500Y-170100000D01*
X139472500Y-170750000D02*
X139472500Y-171400000D01*
X139752500Y-172152500D02*
X139422500Y-171912500D01*
X139752500Y-171672500D01*
X139752500Y-172152500D01*
G36*
X139752500Y-172152500D02*
G01*
X139422500Y-171912500D01*
X139752500Y-171672500D01*
X139752500Y-172152500D01*
G37*
%TO.C,Q1*%
X126940000Y-170750000D02*
X126940000Y-170100000D01*
X126940000Y-170750000D02*
X126940000Y-171400000D01*
X130060000Y-170750000D02*
X130060000Y-170100000D01*
X130060000Y-170750000D02*
X130060000Y-171400000D01*
X130340000Y-172152500D02*
X130010000Y-171912500D01*
X130340000Y-171672500D01*
X130340000Y-172152500D01*
G36*
X130340000Y-172152500D02*
G01*
X130010000Y-171912500D01*
X130340000Y-171672500D01*
X130340000Y-172152500D01*
G37*
%TO.C,C35*%
X175359420Y-145490000D02*
X175640580Y-145490000D01*
X175359420Y-146510000D02*
X175640580Y-146510000D01*
%TO.C,R37*%
X138265000Y-175227064D02*
X138265000Y-174772936D01*
X139735000Y-175227064D02*
X139735000Y-174772936D01*
%TO.C,R110*%
X167772936Y-153515000D02*
X168227064Y-153515000D01*
X167772936Y-154985000D02*
X168227064Y-154985000D01*
%TO.C,Q31*%
X226940000Y-146230000D02*
X226940000Y-145580000D01*
X226940000Y-146230000D02*
X226940000Y-146880000D01*
X230060000Y-146230000D02*
X230060000Y-145580000D01*
X230060000Y-146230000D02*
X230060000Y-146880000D01*
X226990000Y-145067500D02*
X226660000Y-145307500D01*
X226660000Y-144827500D01*
X226990000Y-145067500D01*
G36*
X226990000Y-145067500D02*
G01*
X226660000Y-145307500D01*
X226660000Y-144827500D01*
X226990000Y-145067500D01*
G37*
D16*
%TO.C,Q27*%
X164750000Y-158000000D02*
X164750000Y-161500000D01*
X164750000Y-161500000D02*
X171250000Y-161500000D01*
X164900000Y-155850000D02*
X164900000Y-157650000D01*
X171250000Y-158000000D02*
X164750000Y-158000000D01*
X171250000Y-161500000D02*
X171250000Y-158000000D01*
D17*
%TO.C,C37*%
X220359420Y-142720000D02*
X220640580Y-142720000D01*
X220359420Y-143740000D02*
X220640580Y-143740000D01*
%TD*%
%LPC*%
D18*
%TO.C,J16*%
X271000000Y-55000000D03*
D19*
X265920000Y-55000000D03*
%TD*%
D20*
%TO.C,J7*%
X305905000Y-113675000D03*
D21*
X303365000Y-113675000D03*
X300825000Y-113675000D03*
X298285000Y-113675000D03*
X295745000Y-113675000D03*
X293205000Y-113675000D03*
X290665000Y-113675000D03*
X288125000Y-113675000D03*
%TD*%
D22*
%TO.C,JP2*%
X343000000Y-179250000D03*
D21*
X345540000Y-179250000D03*
X348080000Y-179250000D03*
%TD*%
D20*
%TO.C,J8*%
X283045000Y-113675000D03*
D21*
X280505000Y-113675000D03*
X277965000Y-113675000D03*
X275425000Y-113675000D03*
X272885000Y-113675000D03*
X270345000Y-113675000D03*
X267805000Y-113675000D03*
X265265000Y-113675000D03*
%TD*%
D23*
%TO.C,K5*%
X165000000Y-82700000D03*
X172600000Y-82700000D03*
X172600000Y-70000000D03*
X165000000Y-67460000D03*
%TD*%
D24*
%TO.C,J14*%
X74370000Y-186510000D03*
D25*
X69290000Y-192870000D03*
X79450000Y-192870000D03*
X79450000Y-182710000D03*
X69290000Y-182710000D03*
%TD*%
D20*
%TO.C,J2*%
X300825000Y-161935000D03*
D21*
X298285000Y-161935000D03*
X295745000Y-161935000D03*
X293205000Y-161935000D03*
X290665000Y-161935000D03*
X288125000Y-161935000D03*
X285585000Y-161935000D03*
X283045000Y-161935000D03*
%TD*%
D26*
%TO.C,Q3*%
X57750000Y-171250000D03*
D27*
X74410000Y-173790000D03*
D28*
X74410000Y-171250000D03*
X74410000Y-168710000D03*
%TD*%
D29*
%TO.C,J15*%
X185945000Y-188510000D03*
D30*
X183175000Y-188510000D03*
X180405000Y-188510000D03*
X177635000Y-188510000D03*
X174865000Y-188510000D03*
X184560000Y-191350000D03*
X181790000Y-191350000D03*
X179020000Y-191350000D03*
X176250000Y-191350000D03*
D31*
X192900000Y-189930000D03*
X167910000Y-189930000D03*
%TD*%
D32*
%TO.C,J11*%
X134007500Y-186000000D03*
D33*
X131717500Y-186000000D03*
X129427500Y-186000000D03*
X127137500Y-186000000D03*
X124847500Y-186000000D03*
X135152500Y-188540000D03*
X132862500Y-188540000D03*
X130572500Y-188540000D03*
X128282500Y-188540000D03*
X125992500Y-188540000D03*
X134007500Y-191080000D03*
X131717500Y-191080000D03*
X129427500Y-191080000D03*
X127137500Y-191080000D03*
X124847500Y-191080000D03*
D34*
X142494500Y-188540000D03*
X117505500Y-188540000D03*
%TD*%
D18*
%TO.C,J5*%
X296000000Y-55000000D03*
D19*
X290920000Y-55000000D03*
%TD*%
D23*
%TO.C,K1*%
X65000000Y-82700000D03*
X72600000Y-82700000D03*
X72600000Y-70000000D03*
X65000000Y-67460000D03*
%TD*%
D18*
%TO.C,J21*%
X146000000Y-55000000D03*
D19*
X140920000Y-55000000D03*
%TD*%
D18*
%TO.C,J17*%
X246000000Y-55000000D03*
D19*
X240920000Y-55000000D03*
%TD*%
D23*
%TO.C,K4*%
X140000000Y-82700000D03*
X147600000Y-82700000D03*
X147600000Y-70000000D03*
X140000000Y-67460000D03*
%TD*%
D35*
%TO.C,J12*%
X362890000Y-100345000D03*
X362890000Y-75345000D03*
D36*
X361000000Y-92160000D03*
D37*
X361000000Y-89870000D03*
X361000000Y-87580000D03*
X361000000Y-85290000D03*
X361000000Y-83000000D03*
X362900000Y-93305000D03*
X362900000Y-91015000D03*
X362900000Y-88725000D03*
X362900000Y-86435000D03*
X362900000Y-84145000D03*
X364800000Y-92160000D03*
X364800000Y-89870000D03*
X364800000Y-87580000D03*
X364800000Y-85290000D03*
X364800000Y-83000000D03*
%TD*%
D38*
%TO.C,J25*%
X349000000Y-65000000D03*
D39*
X349000000Y-59000000D03*
X344300000Y-62000000D03*
%TD*%
D18*
%TO.C,J22*%
X121000000Y-55000000D03*
D19*
X115920000Y-55000000D03*
%TD*%
D23*
%TO.C,K2*%
X90000000Y-82700000D03*
X97600000Y-82700000D03*
X97600000Y-70000000D03*
X90000000Y-67460000D03*
%TD*%
D40*
%TO.C,H4*%
X366000000Y-54000000D03*
%TD*%
D24*
%TO.C,J13*%
X94370000Y-186510000D03*
D25*
X99450000Y-192870000D03*
X99450000Y-182710000D03*
X89290000Y-182710000D03*
X89290000Y-192870000D03*
%TD*%
D20*
%TO.C,J6*%
X332829000Y-113675000D03*
D21*
X330289000Y-113675000D03*
X327749000Y-113675000D03*
X325209000Y-113675000D03*
X322669000Y-113675000D03*
X320129000Y-113675000D03*
X317589000Y-113675000D03*
X315049000Y-113675000D03*
X312509000Y-113675000D03*
X309969000Y-113675000D03*
%TD*%
D20*
%TO.C,J3*%
X277965000Y-161935000D03*
D21*
X275425000Y-161935000D03*
X272885000Y-161935000D03*
X270345000Y-161935000D03*
X267805000Y-161935000D03*
X265265000Y-161935000D03*
X262725000Y-161935000D03*
X260185000Y-161935000D03*
%TD*%
D23*
%TO.C,K9*%
X215000000Y-82700000D03*
X222600000Y-82700000D03*
X222600000Y-70000000D03*
X215000000Y-67460000D03*
%TD*%
D18*
%TO.C,J20*%
X171000000Y-55000000D03*
D19*
X165920000Y-55000000D03*
%TD*%
D20*
%TO.C,J9*%
X278150000Y-105200000D03*
D21*
X275610000Y-105200000D03*
X273070000Y-105200000D03*
X270530000Y-105200000D03*
X267990000Y-105200000D03*
X265450000Y-105200000D03*
%TD*%
D18*
%TO.C,J24*%
X71000000Y-55000000D03*
D19*
X65920000Y-55000000D03*
%TD*%
D18*
%TO.C,J19*%
X196000000Y-55000000D03*
D19*
X190920000Y-55000000D03*
%TD*%
D18*
%TO.C,J23*%
X96000000Y-55000000D03*
D19*
X90920000Y-55000000D03*
%TD*%
D20*
%TO.C,J1*%
X323685000Y-161935000D03*
D21*
X321145000Y-161935000D03*
X318605000Y-161935000D03*
X316065000Y-161935000D03*
X313525000Y-161935000D03*
X310985000Y-161935000D03*
X308445000Y-161935000D03*
X305905000Y-161935000D03*
%TD*%
D23*
%TO.C,K10*%
X239600000Y-82700000D03*
X247200000Y-82700000D03*
X247200000Y-70000000D03*
X239600000Y-67460000D03*
%TD*%
D18*
%TO.C,J18*%
X221000000Y-55000000D03*
D19*
X215920000Y-55000000D03*
%TD*%
D40*
%TO.C,H3*%
X54000000Y-54000000D03*
%TD*%
D23*
%TO.C,K6*%
X265037500Y-82700000D03*
X272637500Y-82700000D03*
X272637500Y-70000000D03*
X265037500Y-67460000D03*
%TD*%
D41*
%TO.C,J4*%
X257645000Y-156855000D03*
D21*
X255105000Y-156855000D03*
X257645000Y-154315000D03*
X255105000Y-154315000D03*
X257645000Y-151775000D03*
X255105000Y-151775000D03*
X257645000Y-149235000D03*
X255105000Y-149235000D03*
X257645000Y-146695000D03*
X255105000Y-146695000D03*
X257645000Y-144155000D03*
X255105000Y-144155000D03*
X257645000Y-141615000D03*
X255105000Y-141615000D03*
X257645000Y-139075000D03*
X255105000Y-139075000D03*
X257645000Y-136535000D03*
X255105000Y-136535000D03*
X257645000Y-133995000D03*
X255105000Y-133995000D03*
X257645000Y-131455000D03*
X255105000Y-131455000D03*
X257645000Y-128915000D03*
X255105000Y-128915000D03*
X257645000Y-126375000D03*
X255105000Y-126375000D03*
X257645000Y-123835000D03*
X255105000Y-123835000D03*
X257645000Y-121295000D03*
X255105000Y-121295000D03*
X257645000Y-118755000D03*
X255105000Y-118755000D03*
X257645000Y-116215000D03*
X255105000Y-116215000D03*
X257645000Y-113675000D03*
X255105000Y-113675000D03*
%TD*%
D40*
%TO.C,H2*%
X366000000Y-196000000D03*
%TD*%
D35*
%TO.C,J10*%
X214100000Y-189000000D03*
X247400000Y-189000000D03*
D42*
X239375000Y-186460000D03*
D37*
X237085000Y-186460000D03*
X234795000Y-186460000D03*
X232505000Y-186460000D03*
X230215000Y-186460000D03*
X227925000Y-186460000D03*
X225635000Y-186460000D03*
X223345000Y-186460000D03*
X221055000Y-186460000D03*
X240520000Y-189000000D03*
X238230000Y-189000000D03*
X235940000Y-189000000D03*
X233650000Y-189000000D03*
X231360000Y-189000000D03*
X229070000Y-189000000D03*
X226780000Y-189000000D03*
X224490000Y-189000000D03*
X222200000Y-189000000D03*
X239375000Y-191540000D03*
X237085000Y-191540000D03*
X234795000Y-191540000D03*
X232505000Y-191540000D03*
X230215000Y-191540000D03*
X227925000Y-191540000D03*
X225635000Y-191540000D03*
X223345000Y-191540000D03*
%TD*%
D43*
%TO.C,C1*%
X336000000Y-187338606D03*
D37*
X336000000Y-189838606D03*
%TD*%
D40*
%TO.C,H1*%
X54000000Y-196000000D03*
%TD*%
D43*
%TO.C,C2*%
X345750000Y-187338607D03*
D37*
X345750000Y-189838607D03*
%TD*%
D23*
%TO.C,K3*%
X115000000Y-82700000D03*
X122600000Y-82700000D03*
X122600000Y-70000000D03*
X115000000Y-67460000D03*
%TD*%
%TO.C,K8*%
X290000000Y-82700000D03*
X297600000Y-82700000D03*
X297600000Y-70000000D03*
X290000000Y-67460000D03*
%TD*%
%TO.C,K7*%
X190000000Y-82700000D03*
X197600000Y-82700000D03*
X197600000Y-70000000D03*
X190000000Y-67460000D03*
%TD*%
D44*
%TO.C,MH2*%
X337655000Y-161935000D03*
%TD*%
D45*
%TO.C,Q30*%
X173700000Y-156750000D03*
X176000000Y-156750000D03*
X178300000Y-156750000D03*
D46*
X176000000Y-162750000D03*
%TD*%
D45*
%TO.C,Q34*%
X218950000Y-153980000D03*
X221250000Y-153980000D03*
X223550000Y-153980000D03*
D46*
X221250000Y-159980000D03*
%TD*%
D47*
%TO.C,R116*%
X228587500Y-149480000D03*
X230412500Y-149480000D03*
%TD*%
D48*
%TO.C,Q33*%
X219550000Y-145292500D03*
X221450000Y-145292500D03*
X220500000Y-147167500D03*
%TD*%
%TO.C,Q29*%
X174300000Y-148062500D03*
X176200000Y-148062500D03*
X175250000Y-149937500D03*
%TD*%
D44*
%TO.C,MH1*%
X336385000Y-113675000D03*
%TD*%
D47*
%TO.C,R114*%
X175337500Y-152250000D03*
X177162500Y-152250000D03*
%TD*%
%TO.C,R115*%
X227587500Y-141230000D03*
X229412500Y-141230000D03*
%TD*%
D45*
%TO.C,Q32*%
X227200000Y-153980000D03*
X229500000Y-153980000D03*
X231800000Y-153980000D03*
D46*
X229500000Y-159980000D03*
%TD*%
D49*
%TO.C,R102*%
X261750000Y-117837500D03*
X261750000Y-119662500D03*
%TD*%
D47*
%TO.C,R118*%
X219587500Y-141230000D03*
X221412500Y-141230000D03*
%TD*%
D44*
%TO.C,MH4*%
X285585000Y-156855000D03*
%TD*%
D47*
%TO.C,R119*%
X220587500Y-151500000D03*
X222412500Y-151500000D03*
%TD*%
D48*
%TO.C,Q28*%
X166050000Y-148062500D03*
X167950000Y-148062500D03*
X167000000Y-149937500D03*
%TD*%
D50*
%TO.C,C36*%
X227725000Y-143230000D03*
X229275000Y-143230000D03*
%TD*%
D51*
%TO.C,R32*%
X136750000Y-175912500D03*
X136750000Y-174087500D03*
%TD*%
D49*
%TO.C,R103*%
X295750000Y-117087500D03*
X295750000Y-118912500D03*
%TD*%
D47*
%TO.C,R113*%
X175337500Y-154250000D03*
X177162500Y-154250000D03*
%TD*%
D44*
%TO.C,MH5*%
X261455000Y-113675000D03*
%TD*%
D49*
%TO.C,R104*%
X293250000Y-117087500D03*
X293250000Y-118912500D03*
%TD*%
D47*
%TO.C,R112*%
X174587500Y-144000000D03*
X176412500Y-144000000D03*
%TD*%
%TO.C,R117*%
X228587500Y-151480000D03*
X230412500Y-151480000D03*
%TD*%
D44*
%TO.C,MH6*%
X255105000Y-161935000D03*
%TD*%
D47*
%TO.C,R120*%
X220587500Y-149480000D03*
X222412500Y-149480000D03*
%TD*%
%TO.C,R111*%
X166087500Y-144000000D03*
X167912500Y-144000000D03*
%TD*%
%TO.C,R109*%
X167087500Y-152250000D03*
X168912500Y-152250000D03*
%TD*%
D44*
%TO.C,MH3*%
X285585000Y-128915000D03*
%TD*%
D50*
%TO.C,C34*%
X166225000Y-146000000D03*
X167775000Y-146000000D03*
%TD*%
D51*
%TO.C,R31*%
X127750000Y-175912500D03*
X127750000Y-174087500D03*
%TD*%
D52*
%TO.C,Q2*%
X138862500Y-171687500D03*
X136962500Y-171687500D03*
X137912500Y-169812500D03*
%TD*%
%TO.C,Q1*%
X129450000Y-171687500D03*
X127550000Y-171687500D03*
X128500000Y-169812500D03*
%TD*%
D50*
%TO.C,C35*%
X174725000Y-146000000D03*
X176275000Y-146000000D03*
%TD*%
D51*
%TO.C,R37*%
X139000000Y-175912500D03*
X139000000Y-174087500D03*
%TD*%
D47*
%TO.C,R110*%
X167087500Y-154250000D03*
X168912500Y-154250000D03*
%TD*%
D48*
%TO.C,Q31*%
X227550000Y-145292500D03*
X229450000Y-145292500D03*
X228500000Y-147167500D03*
%TD*%
D45*
%TO.C,Q27*%
X165700000Y-156750000D03*
X168000000Y-156750000D03*
X170300000Y-156750000D03*
D46*
X168000000Y-162750000D03*
%TD*%
D50*
%TO.C,C37*%
X219725000Y-143230000D03*
X221275000Y-143230000D03*
%TD*%
%LPD*%
M02*
