M48
; DRILL file {KiCad 9.0.6+1} date 2026-02-09T17:18:25+0000
; FORMAT={-:-/ absolute / metric / decimal}
; #@! TF.CreationDate,2026-02-09T17:18:25+00:00
; #@! TF.GenerationSoftware,Kicad,Pcbnew,9.0.6+1
; #@! TF.FileFunction,Plated,1,4,PTH
FMAT,2
METRIC
; #@! TA.AperFunction,Plated,PTH,ViaDrill
T1C0.250
; #@! TA.AperFunction,Plated,PTH,ComponentDrill
T2C0.800
; #@! TA.AperFunction,Plated,PTH,ComponentDrill
T3C1.000
; #@! TA.AperFunction,Plated,PTH,ComponentDrill
T4C1.100
; #@! TA.AperFunction,Plated,PTH,ComponentDrill
T5C1.200
; #@! TA.AperFunction,Plated,PTH,ComponentDrill
T6C1.300
; #@! TA.AperFunction,Plated,PTH,ComponentDrill
T7C1.600
; #@! TA.AperFunction,Plated,PTH,ComponentDrill
T8C2.200
; #@! TA.AperFunction,Plated,PTH,ComponentDrill
T9C3.050
; #@! TA.AperFunction,Plated,PTH,ComponentDrill
T10C3.162
; #@! TA.AperFunction,Plated,PTH,ComponentDrill
T11C3.200
; #@! TA.AperFunction,Plated,PTH,ComponentDrill
T12C3.640
%
G90
G05
T1
X77.165Y-168.41
X77.95Y-80.8
X103.112Y-80.81
X127.55Y-110.3
X127.8Y-177.0
X128.037Y-80.79
X128.5Y-168.4
X129.4Y-173.0
X136.2Y-177.15
X137.0Y-173.1
X137.912Y-168.463
X140.7Y-108.56
X152.95Y-80.737
X166.225Y-145.13
X167.775Y-145.13
X167.95Y-146.9
X168.0Y-162.75
X172.2Y-154.2
X172.23Y-145.8
X176.0Y-162.75
X176.1Y-142.15
X176.2Y-146.89
X176.412Y-145.11
X177.9Y-80.873
X178.73Y-145.8
X178.73Y-154.2
X185.23Y-145.8
X185.23Y-154.2
X191.73Y-154.2
X191.8Y-145.8
X198.23Y-145.8
X198.23Y-154.2
X202.95Y-80.8
X204.73Y-145.8
X204.73Y-154.2
X211.23Y-145.8
X211.23Y-154.2
X217.73Y-145.8
X217.73Y-154.2
X221.25Y-159.98
X221.45Y-144.12
X221.6Y-139.2
X224.23Y-145.8
X224.23Y-154.2
X227.9Y-80.882
X228.15Y-139.85
X229.412Y-142.36
X229.45Y-144.13
X229.5Y-159.98
X230.73Y-145.8
X230.73Y-154.2
X252.537Y-80.81
X254.76Y-176.95
X254.76Y-179.25
X254.76Y-181.7
X254.76Y-184.25
X257.49Y-174.95
X257.49Y-178.0
X257.5Y-180.5
X257.51Y-183.05
X270.25Y-176.0
X272.5Y-176.0
X274.5Y-176.0
X278.2Y-80.748
X278.75Y-176.0
X281.0Y-176.0
X287.25Y-176.0
X289.5Y-176.0
X295.75Y-176.0
X298.0Y-176.0
X303.15Y-80.862
X304.25Y-176.0
X306.5Y-176.0
T2
X336.0Y-187.339
X336.0Y-189.839
X345.75Y-187.339
X345.75Y-189.839
T3
X174.865Y-188.51
X176.25Y-191.35
X177.635Y-188.51
X179.02Y-191.35
X180.405Y-188.51
X181.79Y-191.35
X183.175Y-188.51
X184.56Y-191.35
X185.945Y-188.51
X221.055Y-186.46
X222.2Y-189.0
X223.345Y-186.46
X223.345Y-191.54
X224.49Y-189.0
X225.635Y-186.46
X225.635Y-191.54
X226.78Y-189.0
X227.925Y-186.46
X227.925Y-191.54
X229.07Y-189.0
X230.215Y-186.46
X230.215Y-191.54
X231.36Y-189.0
X232.505Y-186.46
X232.505Y-191.54
X233.65Y-189.0
X234.795Y-186.46
X234.795Y-191.54
X235.94Y-189.0
X237.085Y-186.46
X237.085Y-191.54
X238.23Y-189.0
X239.375Y-186.46
X239.375Y-191.54
X240.52Y-189.0
X255.105Y-113.675
X255.105Y-116.215
X255.105Y-118.755
X255.105Y-121.295
X255.105Y-123.835
X255.105Y-126.375
X255.105Y-128.915
X255.105Y-131.455
X255.105Y-133.995
X255.105Y-136.535
X255.105Y-139.075
X255.105Y-141.615
X255.105Y-144.155
X255.105Y-146.695
X255.105Y-149.235
X255.105Y-151.775
X255.105Y-154.315
X255.105Y-156.855
X257.645Y-113.675
X257.645Y-116.215
X257.645Y-118.755
X257.645Y-121.295
X257.645Y-123.835
X257.645Y-126.375
X257.645Y-128.915
X257.645Y-131.455
X257.645Y-133.995
X257.645Y-136.535
X257.645Y-139.075
X257.645Y-141.615
X257.645Y-144.155
X257.645Y-146.695
X257.645Y-149.235
X257.645Y-151.775
X257.645Y-154.315
X257.645Y-156.855
X260.185Y-161.935
X262.725Y-161.935
X265.265Y-113.675
X265.265Y-161.935
X265.45Y-105.2
X267.805Y-113.675
X267.805Y-161.935
X267.99Y-105.2
X270.345Y-113.675
X270.345Y-161.935
X270.53Y-105.2
X272.885Y-113.675
X272.885Y-161.935
X273.07Y-105.2
X275.425Y-113.675
X275.425Y-161.935
X275.61Y-105.2
X277.965Y-113.675
X277.965Y-161.935
X278.15Y-105.2
X280.505Y-113.675
X283.045Y-113.675
X283.045Y-161.935
X285.585Y-161.935
X288.125Y-113.675
X288.125Y-161.935
X290.665Y-113.675
X290.665Y-161.935
X293.205Y-113.675
X293.205Y-161.935
X295.745Y-113.675
X295.745Y-161.935
X298.285Y-113.675
X298.285Y-161.935
X300.825Y-113.675
X300.825Y-161.935
X303.365Y-113.675
X305.905Y-113.675
X305.905Y-161.935
X308.445Y-161.935
X309.969Y-113.675
X310.985Y-161.935
X312.509Y-113.675
X313.525Y-161.935
X315.049Y-113.675
X316.065Y-161.935
X317.589Y-113.675
X318.605Y-161.935
X320.129Y-113.675
X321.145Y-161.935
X322.669Y-113.675
X323.685Y-161.935
X325.209Y-113.675
X327.749Y-113.675
X330.289Y-113.675
X332.829Y-113.675
X343.0Y-179.25
X345.54Y-179.25
X348.08Y-179.25
X361.0Y-83.0
X361.0Y-85.29
X361.0Y-87.58
X361.0Y-89.87
X361.0Y-92.16
X362.9Y-84.145
X362.9Y-86.435
X362.9Y-88.725
X362.9Y-91.015
X362.9Y-93.305
X364.8Y-83.0
X364.8Y-85.29
X364.8Y-87.58
X364.8Y-89.87
X364.8Y-92.16
T4
X74.41Y-168.71
X74.41Y-171.25
X74.41Y-173.79
X124.847Y-186.0
X124.847Y-191.08
X125.992Y-188.54
X127.137Y-186.0
X127.137Y-191.08
X128.282Y-188.54
X129.427Y-186.0
X129.427Y-191.08
X130.572Y-188.54
X131.718Y-186.0
X131.718Y-191.08
X132.862Y-188.54
X134.007Y-186.0
X134.007Y-191.08
X135.153Y-188.54
T5
X69.29Y-182.71
X69.29Y-192.87
X79.45Y-182.71
X79.45Y-192.87
X89.29Y-182.71
X89.29Y-192.87
X99.45Y-182.71
X99.45Y-192.87
T6
X65.0Y-67.46
X65.0Y-82.7
X72.6Y-70.0
X72.6Y-82.7
X90.0Y-67.46
X90.0Y-82.7
X97.6Y-70.0
X97.6Y-82.7
X115.0Y-67.46
X115.0Y-82.7
X122.6Y-70.0
X122.6Y-82.7
X140.0Y-67.46
X140.0Y-82.7
X147.6Y-70.0
X147.6Y-82.7
X165.0Y-67.46
X165.0Y-82.7
X172.6Y-70.0
X172.6Y-82.7
X190.0Y-67.46
X190.0Y-82.7
X197.6Y-70.0
X197.6Y-82.7
X215.0Y-67.46
X215.0Y-82.7
X222.6Y-70.0
X222.6Y-82.7
X239.6Y-67.46
X239.6Y-82.7
X247.2Y-70.0
X247.2Y-82.7
X265.037Y-67.46
X265.037Y-82.7
X272.637Y-70.0
X272.637Y-82.7
X290.0Y-67.46
X290.0Y-82.7
X297.6Y-70.0
X297.6Y-82.7
T7
X65.92Y-55.0
X71.0Y-55.0
X90.92Y-55.0
X96.0Y-55.0
X115.92Y-55.0
X121.0Y-55.0
X140.92Y-55.0
X146.0Y-55.0
X165.92Y-55.0
X171.0Y-55.0
X190.92Y-55.0
X196.0Y-55.0
X215.92Y-55.0
X221.0Y-55.0
X240.92Y-55.0
X246.0Y-55.0
X265.92Y-55.0
X271.0Y-55.0
X290.92Y-55.0
X296.0Y-55.0
T8
X74.37Y-186.51
X94.37Y-186.51
T9
X167.91Y-189.93
X192.9Y-189.93
T10
X344.3Y-62.0
X349.0Y-59.0
T11
X54.0Y-54.0
X54.0Y-196.0
X117.505Y-188.54
X142.494Y-188.54
X214.1Y-189.0
X247.4Y-189.0
X362.89Y-75.345
X362.89Y-100.345
X366.0Y-54.0
X366.0Y-196.0
T12
X349.0Y-65.0
M30
